<?xml version="1.0" standalone="no"?>
<!DOCTYPE svg PUBLIC "-//W3C//DTD SVG 20010904//EN"
 "http://www.w3.org/TR/2001/REC-SVG-20010904/DTD/svg10.dtd">
<svg version="1.0" xmlns="http://www.w3.org/2000/svg"
 width="176.000000pt" height="176.000000pt" viewBox="0 0 176.000000 176.000000"
 preserveAspectRatio="xMidYMid meet">
<metadata>
Created by potrace 1.11, written by Peter Selinger 2001-2013
</metadata>
<g transform="translate(0.000000,176.000000) scale(0.100000,-0.100000)"
fill="#000000" stroke="none">
<path d="M1144 1746 c-18 -14 -19 -35 -19 -856 0 -916 -2 -880 55 -880 58 0
56 -23 54 875 -1 451 -2 825 -3 832 -2 18 -31 43 -50 43 -9 0 -26 -6 -37 -14z"/>
<path d="M706 1518 c-14 -20 -16 -97 -16 -639 0 -584 1 -617 18 -632 25 -23
69 -22 82 2 6 13 10 231 10 640 0 550 -2 621 -16 635 -22 23 -60 20 -78 -6z"/>
<path d="M1356 1518 c-13 -20 -15 -113 -15 -631 0 -425 3 -616 11 -633 14 -31
72 -34 88 -5 6 13 10 231 10 640 0 550 -2 621 -16 635 -23 23 -61 20 -78 -6z"/>
<path d="M926 1304 c-14 -14 -16 -63 -14 -427 l3 -411 24 -13 c25 -12 57 -3
73 21 4 6 8 191 8 412 0 376 -1 402 -18 417 -23 21 -56 22 -76 1z"/>
<path d="M1557 1302 c-15 -17 -17 -60 -17 -416 l0 -397 24 -24 c26 -26 51 -25
74 3 9 12 12 111 12 418 0 353 -2 405 -16 418 -21 21 -57 20 -77 -2z"/>
<path d="M489 1084 c-17 -21 -21 -354 -4 -386 17 -35 53 -41 79 -15 21 21 22
28 21 203 0 198 -5 214 -55 214 -15 0 -34 -7 -41 -16z"/>
<path d="M118 923 c-15 -16 -18 -29 -13 -52 9 -40 16 -44 97 -46 56 -2 74 2
94 18 20 15 24 25 19 46 -11 43 -27 52 -104 54 -63 2 -75 -1 -93 -20z"/>
</g>
</svg>
