M48
; DRILL file {KiCad (5.1.5)-3} date 3/6/2021 3:54:28 PM
; FORMAT={-:-/ absolute / inch / decimal}
; #@! TF.CreationDate,2021-03-06T15:54:28-05:00
; #@! TF.GenerationSoftware,Kicad,Pcbnew,(5.1.5)-3
; #@! TF.FileFunction,Plated,1,2,PTH
FMAT,2
INCH
T1C0.0157
T2C0.0394
%
G90
G05
T1
X6.0Y-3.8
X6.3Y-3.75
X6.3Y-3.85
X6.3Y-3.95
T2
X7.0Y-3.05
X7.0Y-3.15
X7.0Y-3.25
X7.0Y-3.35
X7.0Y-3.45
X7.0Y-3.55
X7.0Y-3.65
X7.0Y-3.75
X7.0Y-3.85
X7.0Y-3.95
X7.0Y-4.05
X7.0Y-4.15
X7.0Y-4.25
X7.0Y-4.35
X7.0Y-4.45
X7.0Y-4.55
X7.0Y-4.65
X7.0Y-4.75
X7.0Y-4.85
X5.6Y-3.05
X5.6Y-3.15
X5.6Y-3.25
X5.6Y-3.35
X5.6Y-3.45
X5.6Y-3.55
X5.6Y-3.65
X5.6Y-3.75
X5.6Y-3.85
X5.6Y-3.95
X5.6Y-4.05
X5.6Y-4.15
X5.6Y-4.25
X5.6Y-4.35
X5.6Y-4.45
X5.6Y-4.55
X5.6Y-4.65
X5.6Y-4.75
X5.6Y-4.85
T0
M30
