G04 #@! TF.GenerationSoftware,KiCad,Pcbnew,(5.1.5)-3*
G04 #@! TF.CreationDate,2021-03-06T15:43:57-05:00*
G04 #@! TF.ProjectId,adc7953-breakout,61646337-3935-4332-9d62-7265616b6f75,rev?*
G04 #@! TF.SameCoordinates,Original*
G04 #@! TF.FileFunction,Copper,L1,Top*
G04 #@! TF.FilePolarity,Positive*
%FSLAX46Y46*%
G04 Gerber Fmt 4.6, Leading zero omitted, Abs format (unit mm)*
G04 Created by KiCad (PCBNEW (5.1.5)-3) date 2021-03-06 15:43:57*
%MOMM*%
%LPD*%
G04 APERTURE LIST*
%ADD10R,1.100000X0.285000*%
%ADD11O,1.700000X1.700000*%
%ADD12R,1.700000X1.700000*%
%ADD13C,0.100000*%
%ADD14C,0.800000*%
%ADD15C,0.250000*%
%ADD16C,0.254000*%
G04 APERTURE END LIST*
D10*
X162870000Y-93290000D03*
X162870000Y-93790000D03*
X162870000Y-94290000D03*
X162870000Y-94790000D03*
X162870000Y-95290000D03*
X162870000Y-95790000D03*
X162870000Y-96290000D03*
X162870000Y-96790000D03*
X162870000Y-97290000D03*
X162870000Y-97790000D03*
X162870000Y-98290000D03*
X162870000Y-98790000D03*
X162870000Y-99290000D03*
X162870000Y-99790000D03*
X162870000Y-100290000D03*
X162870000Y-100790000D03*
X162870000Y-101290000D03*
X162870000Y-101790000D03*
X162870000Y-102290000D03*
X157170000Y-102290000D03*
X157170000Y-101790000D03*
X157170000Y-101290000D03*
X157170000Y-100790000D03*
X157170000Y-100290000D03*
X157170000Y-99790000D03*
X157170000Y-99290000D03*
X157170000Y-98790000D03*
X157170000Y-98290000D03*
X157170000Y-97790000D03*
X157170000Y-97290000D03*
X157170000Y-96790000D03*
X157170000Y-96290000D03*
X157170000Y-95790000D03*
X157170000Y-95290000D03*
X157170000Y-94790000D03*
X157170000Y-94290000D03*
X157170000Y-93790000D03*
X157170000Y-93290000D03*
D11*
X177800000Y-77470000D03*
X177800000Y-80010000D03*
X177800000Y-82550000D03*
X177800000Y-85090000D03*
X177800000Y-87630000D03*
X177800000Y-90170000D03*
X177800000Y-92710000D03*
X177800000Y-95250000D03*
X177800000Y-97790000D03*
X177800000Y-100330000D03*
X177800000Y-102870000D03*
X177800000Y-105410000D03*
X177800000Y-107950000D03*
X177800000Y-110490000D03*
X177800000Y-113030000D03*
X177800000Y-115570000D03*
X177800000Y-118110000D03*
X177800000Y-120650000D03*
D12*
X177800000Y-123190000D03*
D11*
X142240000Y-123190000D03*
X142240000Y-120650000D03*
X142240000Y-118110000D03*
X142240000Y-115570000D03*
X142240000Y-113030000D03*
X142240000Y-110490000D03*
X142240000Y-107950000D03*
X142240000Y-105410000D03*
X142240000Y-102870000D03*
X142240000Y-100330000D03*
X142240000Y-97790000D03*
X142240000Y-95250000D03*
X142240000Y-92710000D03*
X142240000Y-90170000D03*
X142240000Y-87630000D03*
X142240000Y-85090000D03*
X142240000Y-82550000D03*
X142240000Y-80010000D03*
D12*
X142240000Y-77470000D03*
G04 #@! TA.AperFunction,SMDPad,CuDef*
D13*
G36*
X151610142Y-94431174D02*
G01*
X151633803Y-94434684D01*
X151657007Y-94440496D01*
X151679529Y-94448554D01*
X151701153Y-94458782D01*
X151721670Y-94471079D01*
X151740883Y-94485329D01*
X151758607Y-94501393D01*
X151774671Y-94519117D01*
X151788921Y-94538330D01*
X151801218Y-94558847D01*
X151811446Y-94580471D01*
X151819504Y-94602993D01*
X151825316Y-94626197D01*
X151828826Y-94649858D01*
X151830000Y-94673750D01*
X151830000Y-95161250D01*
X151828826Y-95185142D01*
X151825316Y-95208803D01*
X151819504Y-95232007D01*
X151811446Y-95254529D01*
X151801218Y-95276153D01*
X151788921Y-95296670D01*
X151774671Y-95315883D01*
X151758607Y-95333607D01*
X151740883Y-95349671D01*
X151721670Y-95363921D01*
X151701153Y-95376218D01*
X151679529Y-95386446D01*
X151657007Y-95394504D01*
X151633803Y-95400316D01*
X151610142Y-95403826D01*
X151586250Y-95405000D01*
X150673750Y-95405000D01*
X150649858Y-95403826D01*
X150626197Y-95400316D01*
X150602993Y-95394504D01*
X150580471Y-95386446D01*
X150558847Y-95376218D01*
X150538330Y-95363921D01*
X150519117Y-95349671D01*
X150501393Y-95333607D01*
X150485329Y-95315883D01*
X150471079Y-95296670D01*
X150458782Y-95276153D01*
X150448554Y-95254529D01*
X150440496Y-95232007D01*
X150434684Y-95208803D01*
X150431174Y-95185142D01*
X150430000Y-95161250D01*
X150430000Y-94673750D01*
X150431174Y-94649858D01*
X150434684Y-94626197D01*
X150440496Y-94602993D01*
X150448554Y-94580471D01*
X150458782Y-94558847D01*
X150471079Y-94538330D01*
X150485329Y-94519117D01*
X150501393Y-94501393D01*
X150519117Y-94485329D01*
X150538330Y-94471079D01*
X150558847Y-94458782D01*
X150580471Y-94448554D01*
X150602993Y-94440496D01*
X150626197Y-94434684D01*
X150649858Y-94431174D01*
X150673750Y-94430000D01*
X151586250Y-94430000D01*
X151610142Y-94431174D01*
G37*
G04 #@! TD.AperFunction*
G04 #@! TA.AperFunction,SMDPad,CuDef*
G36*
X151610142Y-92556174D02*
G01*
X151633803Y-92559684D01*
X151657007Y-92565496D01*
X151679529Y-92573554D01*
X151701153Y-92583782D01*
X151721670Y-92596079D01*
X151740883Y-92610329D01*
X151758607Y-92626393D01*
X151774671Y-92644117D01*
X151788921Y-92663330D01*
X151801218Y-92683847D01*
X151811446Y-92705471D01*
X151819504Y-92727993D01*
X151825316Y-92751197D01*
X151828826Y-92774858D01*
X151830000Y-92798750D01*
X151830000Y-93286250D01*
X151828826Y-93310142D01*
X151825316Y-93333803D01*
X151819504Y-93357007D01*
X151811446Y-93379529D01*
X151801218Y-93401153D01*
X151788921Y-93421670D01*
X151774671Y-93440883D01*
X151758607Y-93458607D01*
X151740883Y-93474671D01*
X151721670Y-93488921D01*
X151701153Y-93501218D01*
X151679529Y-93511446D01*
X151657007Y-93519504D01*
X151633803Y-93525316D01*
X151610142Y-93528826D01*
X151586250Y-93530000D01*
X150673750Y-93530000D01*
X150649858Y-93528826D01*
X150626197Y-93525316D01*
X150602993Y-93519504D01*
X150580471Y-93511446D01*
X150558847Y-93501218D01*
X150538330Y-93488921D01*
X150519117Y-93474671D01*
X150501393Y-93458607D01*
X150485329Y-93440883D01*
X150471079Y-93421670D01*
X150458782Y-93401153D01*
X150448554Y-93379529D01*
X150440496Y-93357007D01*
X150434684Y-93333803D01*
X150431174Y-93310142D01*
X150430000Y-93286250D01*
X150430000Y-92798750D01*
X150431174Y-92774858D01*
X150434684Y-92751197D01*
X150440496Y-92727993D01*
X150448554Y-92705471D01*
X150458782Y-92683847D01*
X150471079Y-92663330D01*
X150485329Y-92644117D01*
X150501393Y-92626393D01*
X150519117Y-92610329D01*
X150538330Y-92596079D01*
X150558847Y-92583782D01*
X150580471Y-92573554D01*
X150602993Y-92565496D01*
X150626197Y-92559684D01*
X150649858Y-92556174D01*
X150673750Y-92555000D01*
X151586250Y-92555000D01*
X151610142Y-92556174D01*
G37*
G04 #@! TD.AperFunction*
G04 #@! TA.AperFunction,SMDPad,CuDef*
G36*
X170660142Y-96366174D02*
G01*
X170683803Y-96369684D01*
X170707007Y-96375496D01*
X170729529Y-96383554D01*
X170751153Y-96393782D01*
X170771670Y-96406079D01*
X170790883Y-96420329D01*
X170808607Y-96436393D01*
X170824671Y-96454117D01*
X170838921Y-96473330D01*
X170851218Y-96493847D01*
X170861446Y-96515471D01*
X170869504Y-96537993D01*
X170875316Y-96561197D01*
X170878826Y-96584858D01*
X170880000Y-96608750D01*
X170880000Y-97096250D01*
X170878826Y-97120142D01*
X170875316Y-97143803D01*
X170869504Y-97167007D01*
X170861446Y-97189529D01*
X170851218Y-97211153D01*
X170838921Y-97231670D01*
X170824671Y-97250883D01*
X170808607Y-97268607D01*
X170790883Y-97284671D01*
X170771670Y-97298921D01*
X170751153Y-97311218D01*
X170729529Y-97321446D01*
X170707007Y-97329504D01*
X170683803Y-97335316D01*
X170660142Y-97338826D01*
X170636250Y-97340000D01*
X169723750Y-97340000D01*
X169699858Y-97338826D01*
X169676197Y-97335316D01*
X169652993Y-97329504D01*
X169630471Y-97321446D01*
X169608847Y-97311218D01*
X169588330Y-97298921D01*
X169569117Y-97284671D01*
X169551393Y-97268607D01*
X169535329Y-97250883D01*
X169521079Y-97231670D01*
X169508782Y-97211153D01*
X169498554Y-97189529D01*
X169490496Y-97167007D01*
X169484684Y-97143803D01*
X169481174Y-97120142D01*
X169480000Y-97096250D01*
X169480000Y-96608750D01*
X169481174Y-96584858D01*
X169484684Y-96561197D01*
X169490496Y-96537993D01*
X169498554Y-96515471D01*
X169508782Y-96493847D01*
X169521079Y-96473330D01*
X169535329Y-96454117D01*
X169551393Y-96436393D01*
X169569117Y-96420329D01*
X169588330Y-96406079D01*
X169608847Y-96393782D01*
X169630471Y-96383554D01*
X169652993Y-96375496D01*
X169676197Y-96369684D01*
X169699858Y-96366174D01*
X169723750Y-96365000D01*
X170636250Y-96365000D01*
X170660142Y-96366174D01*
G37*
G04 #@! TD.AperFunction*
G04 #@! TA.AperFunction,SMDPad,CuDef*
G36*
X170660142Y-98241174D02*
G01*
X170683803Y-98244684D01*
X170707007Y-98250496D01*
X170729529Y-98258554D01*
X170751153Y-98268782D01*
X170771670Y-98281079D01*
X170790883Y-98295329D01*
X170808607Y-98311393D01*
X170824671Y-98329117D01*
X170838921Y-98348330D01*
X170851218Y-98368847D01*
X170861446Y-98390471D01*
X170869504Y-98412993D01*
X170875316Y-98436197D01*
X170878826Y-98459858D01*
X170880000Y-98483750D01*
X170880000Y-98971250D01*
X170878826Y-98995142D01*
X170875316Y-99018803D01*
X170869504Y-99042007D01*
X170861446Y-99064529D01*
X170851218Y-99086153D01*
X170838921Y-99106670D01*
X170824671Y-99125883D01*
X170808607Y-99143607D01*
X170790883Y-99159671D01*
X170771670Y-99173921D01*
X170751153Y-99186218D01*
X170729529Y-99196446D01*
X170707007Y-99204504D01*
X170683803Y-99210316D01*
X170660142Y-99213826D01*
X170636250Y-99215000D01*
X169723750Y-99215000D01*
X169699858Y-99213826D01*
X169676197Y-99210316D01*
X169652993Y-99204504D01*
X169630471Y-99196446D01*
X169608847Y-99186218D01*
X169588330Y-99173921D01*
X169569117Y-99159671D01*
X169551393Y-99143607D01*
X169535329Y-99125883D01*
X169521079Y-99106670D01*
X169508782Y-99086153D01*
X169498554Y-99064529D01*
X169490496Y-99042007D01*
X169484684Y-99018803D01*
X169481174Y-98995142D01*
X169480000Y-98971250D01*
X169480000Y-98483750D01*
X169481174Y-98459858D01*
X169484684Y-98436197D01*
X169490496Y-98412993D01*
X169498554Y-98390471D01*
X169508782Y-98368847D01*
X169521079Y-98348330D01*
X169535329Y-98329117D01*
X169551393Y-98311393D01*
X169569117Y-98295329D01*
X169588330Y-98281079D01*
X169608847Y-98268782D01*
X169630471Y-98258554D01*
X169652993Y-98250496D01*
X169676197Y-98244684D01*
X169699858Y-98241174D01*
X169723750Y-98240000D01*
X170636250Y-98240000D01*
X170660142Y-98241174D01*
G37*
G04 #@! TD.AperFunction*
G04 #@! TA.AperFunction,SMDPad,CuDef*
G36*
X151610142Y-96366174D02*
G01*
X151633803Y-96369684D01*
X151657007Y-96375496D01*
X151679529Y-96383554D01*
X151701153Y-96393782D01*
X151721670Y-96406079D01*
X151740883Y-96420329D01*
X151758607Y-96436393D01*
X151774671Y-96454117D01*
X151788921Y-96473330D01*
X151801218Y-96493847D01*
X151811446Y-96515471D01*
X151819504Y-96537993D01*
X151825316Y-96561197D01*
X151828826Y-96584858D01*
X151830000Y-96608750D01*
X151830000Y-97096250D01*
X151828826Y-97120142D01*
X151825316Y-97143803D01*
X151819504Y-97167007D01*
X151811446Y-97189529D01*
X151801218Y-97211153D01*
X151788921Y-97231670D01*
X151774671Y-97250883D01*
X151758607Y-97268607D01*
X151740883Y-97284671D01*
X151721670Y-97298921D01*
X151701153Y-97311218D01*
X151679529Y-97321446D01*
X151657007Y-97329504D01*
X151633803Y-97335316D01*
X151610142Y-97338826D01*
X151586250Y-97340000D01*
X150673750Y-97340000D01*
X150649858Y-97338826D01*
X150626197Y-97335316D01*
X150602993Y-97329504D01*
X150580471Y-97321446D01*
X150558847Y-97311218D01*
X150538330Y-97298921D01*
X150519117Y-97284671D01*
X150501393Y-97268607D01*
X150485329Y-97250883D01*
X150471079Y-97231670D01*
X150458782Y-97211153D01*
X150448554Y-97189529D01*
X150440496Y-97167007D01*
X150434684Y-97143803D01*
X150431174Y-97120142D01*
X150430000Y-97096250D01*
X150430000Y-96608750D01*
X150431174Y-96584858D01*
X150434684Y-96561197D01*
X150440496Y-96537993D01*
X150448554Y-96515471D01*
X150458782Y-96493847D01*
X150471079Y-96473330D01*
X150485329Y-96454117D01*
X150501393Y-96436393D01*
X150519117Y-96420329D01*
X150538330Y-96406079D01*
X150558847Y-96393782D01*
X150580471Y-96383554D01*
X150602993Y-96375496D01*
X150626197Y-96369684D01*
X150649858Y-96366174D01*
X150673750Y-96365000D01*
X151586250Y-96365000D01*
X151610142Y-96366174D01*
G37*
G04 #@! TD.AperFunction*
G04 #@! TA.AperFunction,SMDPad,CuDef*
G36*
X151610142Y-98241174D02*
G01*
X151633803Y-98244684D01*
X151657007Y-98250496D01*
X151679529Y-98258554D01*
X151701153Y-98268782D01*
X151721670Y-98281079D01*
X151740883Y-98295329D01*
X151758607Y-98311393D01*
X151774671Y-98329117D01*
X151788921Y-98348330D01*
X151801218Y-98368847D01*
X151811446Y-98390471D01*
X151819504Y-98412993D01*
X151825316Y-98436197D01*
X151828826Y-98459858D01*
X151830000Y-98483750D01*
X151830000Y-98971250D01*
X151828826Y-98995142D01*
X151825316Y-99018803D01*
X151819504Y-99042007D01*
X151811446Y-99064529D01*
X151801218Y-99086153D01*
X151788921Y-99106670D01*
X151774671Y-99125883D01*
X151758607Y-99143607D01*
X151740883Y-99159671D01*
X151721670Y-99173921D01*
X151701153Y-99186218D01*
X151679529Y-99196446D01*
X151657007Y-99204504D01*
X151633803Y-99210316D01*
X151610142Y-99213826D01*
X151586250Y-99215000D01*
X150673750Y-99215000D01*
X150649858Y-99213826D01*
X150626197Y-99210316D01*
X150602993Y-99204504D01*
X150580471Y-99196446D01*
X150558847Y-99186218D01*
X150538330Y-99173921D01*
X150519117Y-99159671D01*
X150501393Y-99143607D01*
X150485329Y-99125883D01*
X150471079Y-99106670D01*
X150458782Y-99086153D01*
X150448554Y-99064529D01*
X150440496Y-99042007D01*
X150434684Y-99018803D01*
X150431174Y-98995142D01*
X150430000Y-98971250D01*
X150430000Y-98483750D01*
X150431174Y-98459858D01*
X150434684Y-98436197D01*
X150440496Y-98412993D01*
X150448554Y-98390471D01*
X150458782Y-98368847D01*
X150471079Y-98348330D01*
X150485329Y-98329117D01*
X150501393Y-98311393D01*
X150519117Y-98295329D01*
X150538330Y-98281079D01*
X150558847Y-98268782D01*
X150580471Y-98258554D01*
X150602993Y-98250496D01*
X150626197Y-98244684D01*
X150649858Y-98241174D01*
X150673750Y-98240000D01*
X151586250Y-98240000D01*
X151610142Y-98241174D01*
G37*
G04 #@! TD.AperFunction*
D14*
X152400000Y-96520000D03*
X160020000Y-95250000D03*
X160020000Y-97790000D03*
X160020000Y-100330000D03*
D15*
X151130000Y-96852500D02*
X151130000Y-95250000D01*
X151130000Y-95250000D02*
X151130000Y-94917500D01*
X155896400Y-97790000D02*
X150816400Y-102870000D01*
X157062500Y-97790000D02*
X155896400Y-97790000D01*
X157170000Y-97290000D02*
X157170000Y-97682500D01*
X157170000Y-97682500D02*
X157062500Y-97790000D01*
X144780000Y-102870000D02*
X142240000Y-100330000D01*
X150816400Y-102870000D02*
X144780000Y-102870000D01*
X142240000Y-100330000D02*
X142240000Y-97790000D01*
X169742500Y-97290000D02*
X170180000Y-96852500D01*
X162870000Y-97290000D02*
X169742500Y-97290000D01*
X160020000Y-123190000D02*
X160020000Y-100330000D01*
X160020000Y-123190000D02*
X142240000Y-123190000D01*
X176530000Y-123190000D02*
X160020000Y-123190000D01*
X159930000Y-100330000D02*
X160020000Y-100330000D01*
X157970000Y-102290000D02*
X159930000Y-100330000D01*
X157170000Y-102290000D02*
X157970000Y-102290000D01*
X162070000Y-102290000D02*
X161380000Y-101600000D01*
X162870000Y-102290000D02*
X162070000Y-102290000D01*
X161290000Y-101600000D02*
X160020000Y-100330000D01*
X161380000Y-101600000D02*
X161290000Y-101600000D01*
X157170000Y-97790000D02*
X160020000Y-97790000D01*
X160520000Y-97290000D02*
X162870000Y-97290000D01*
X160020000Y-97790000D02*
X160520000Y-97290000D01*
X157970000Y-94290000D02*
X158930000Y-95250000D01*
X157170000Y-94290000D02*
X157970000Y-94290000D01*
X158930000Y-95250000D02*
X160020000Y-95250000D01*
X162870000Y-94790000D02*
X160480000Y-94790000D01*
X160480000Y-94790000D02*
X160020000Y-95250000D01*
X157970000Y-95790000D02*
X158510000Y-95250000D01*
X157170000Y-95790000D02*
X157970000Y-95790000D01*
X158510000Y-95250000D02*
X160020000Y-95250000D01*
X151130000Y-96852500D02*
X152067500Y-96852500D01*
X152067500Y-96852500D02*
X152400000Y-96520000D01*
X152400000Y-96520000D02*
X152400000Y-96520000D01*
X160020000Y-95250000D02*
X160020000Y-95250000D01*
X160020000Y-97790000D02*
X160020000Y-97790000D01*
X160020000Y-100330000D02*
X160020000Y-100330000D01*
X176530000Y-123190000D02*
X177800000Y-123190000D01*
X176862500Y-96852500D02*
X177800000Y-97790000D01*
X170180000Y-96852500D02*
X176862500Y-96852500D01*
X151130000Y-98727500D02*
X149860000Y-97457500D01*
X149860000Y-95250000D02*
X142240000Y-87630000D01*
X149860000Y-97457500D02*
X149860000Y-95250000D01*
X162870000Y-97790000D02*
X167640000Y-97790000D01*
X168577500Y-98727500D02*
X170180000Y-98727500D01*
X167640000Y-97790000D02*
X168577500Y-98727500D01*
X151130000Y-98727500D02*
X152067500Y-97790000D01*
X152067500Y-97790000D02*
X152400000Y-97790000D01*
X152400000Y-97790000D02*
X154940000Y-95250000D01*
X154980000Y-95290000D02*
X157170000Y-95290000D01*
X154940000Y-95250000D02*
X154980000Y-95290000D01*
X176197500Y-98727500D02*
X177800000Y-100330000D01*
X170180000Y-98727500D02*
X176197500Y-98727500D01*
X150192500Y-93042500D02*
X142240000Y-85090000D01*
X151130000Y-93042500D02*
X150192500Y-93042500D01*
X152877500Y-94790000D02*
X151130000Y-93042500D01*
X157170000Y-94790000D02*
X152877500Y-94790000D01*
X143089999Y-119800001D02*
X142240000Y-120650000D01*
X156392498Y-101790000D02*
X156294999Y-101887499D01*
X157170000Y-101790000D02*
X156392498Y-101790000D01*
X156294999Y-101887499D02*
X156294999Y-118025001D01*
X156294999Y-118025001D02*
X154519999Y-119800001D01*
X154519999Y-119800001D02*
X143089999Y-119800001D01*
X156256088Y-101290000D02*
X154940000Y-102606088D01*
X157170000Y-101290000D02*
X156256088Y-101290000D01*
X154940000Y-116840000D02*
X153670000Y-118110000D01*
X154940000Y-102606088D02*
X154940000Y-116840000D01*
X153670000Y-118110000D02*
X142240000Y-118110000D01*
X151130000Y-115570000D02*
X142240000Y-115570000D01*
X153670000Y-113030000D02*
X151130000Y-115570000D01*
X157170000Y-100790000D02*
X156119678Y-100790000D01*
X156119678Y-100790000D02*
X153670000Y-103239678D01*
X153670000Y-103239678D02*
X153670000Y-113030000D01*
X155983268Y-100290000D02*
X152400000Y-103873268D01*
X157170000Y-100290000D02*
X155983268Y-100290000D01*
X152400000Y-103873268D02*
X152400000Y-111760000D01*
X152400000Y-111760000D02*
X151130000Y-113030000D01*
X151130000Y-113030000D02*
X142240000Y-113030000D01*
X157170000Y-96790000D02*
X156259990Y-96790000D01*
X155259990Y-97790000D02*
X154940000Y-97790000D01*
X156259990Y-96790000D02*
X155259990Y-97790000D01*
X154940000Y-97790000D02*
X151130000Y-101600000D01*
X148590000Y-101600000D02*
X142240000Y-95250000D01*
X151130000Y-101600000D02*
X148590000Y-101600000D01*
X157170000Y-96290000D02*
X155170000Y-96290000D01*
X155170000Y-96290000D02*
X151130000Y-100330000D01*
X149860000Y-100330000D02*
X142240000Y-92710000D01*
X151130000Y-100330000D02*
X149860000Y-100330000D01*
X143089999Y-80859999D02*
X142240000Y-80010000D01*
X156020000Y-93790000D02*
X143089999Y-80859999D01*
X157170000Y-93790000D02*
X156020000Y-93790000D01*
X143340000Y-77470000D02*
X142240000Y-77470000D01*
X157170000Y-91300000D02*
X143340000Y-77470000D01*
X157170000Y-93290000D02*
X157170000Y-91300000D01*
X162870000Y-91130000D02*
X176530000Y-77470000D01*
X162870000Y-93290000D02*
X162870000Y-91130000D01*
X176530000Y-77470000D02*
X177800000Y-77470000D01*
X163783912Y-94290000D02*
X165100000Y-92973912D01*
X162870000Y-94290000D02*
X163783912Y-94290000D01*
X166106088Y-92973912D02*
X176530000Y-82550000D01*
X165100000Y-92973912D02*
X166106088Y-92973912D01*
X176530000Y-82550000D02*
X177800000Y-82550000D01*
X162870000Y-95290000D02*
X165060000Y-95290000D01*
X165060000Y-95290000D02*
X171450000Y-88900000D01*
X176530000Y-88900000D02*
X177800000Y-87630000D01*
X171450000Y-88900000D02*
X175260000Y-88900000D01*
X176530000Y-88900000D02*
X175260000Y-88900000D01*
X162870000Y-95790000D02*
X165830000Y-95790000D01*
X171450000Y-90170000D02*
X176530000Y-90170000D01*
X165830000Y-95790000D02*
X171450000Y-90170000D01*
X176530000Y-90170000D02*
X177800000Y-90170000D01*
X162870000Y-96290000D02*
X166320010Y-96290000D01*
X167360010Y-95250000D02*
X168273590Y-95250000D01*
X166320010Y-96290000D02*
X167360010Y-95250000D01*
X168273590Y-95250000D02*
X169543590Y-93980000D01*
X176530000Y-93980000D02*
X177800000Y-92710000D01*
X169543590Y-93980000D02*
X175260000Y-93980000D01*
X175260000Y-93980000D02*
X176530000Y-93980000D01*
X162870000Y-96790000D02*
X167370000Y-96790000D01*
X167370000Y-96790000D02*
X168910000Y-95250000D01*
X168910000Y-95250000D02*
X176530000Y-95250000D01*
X176530000Y-95250000D02*
X177800000Y-95250000D01*
X176530000Y-102870000D02*
X177800000Y-102870000D01*
X162870000Y-98290000D02*
X165600000Y-98290000D01*
X170180000Y-102870000D02*
X176530000Y-102870000D01*
X165600000Y-98290000D02*
X170180000Y-102870000D01*
X176530000Y-105410000D02*
X177800000Y-105410000D01*
X162870000Y-98790000D02*
X164830000Y-98790000D01*
X164830000Y-98790000D02*
X171450000Y-105410000D01*
X171450000Y-105410000D02*
X176530000Y-105410000D01*
X168540020Y-105040020D02*
X171450000Y-107950000D01*
X168540020Y-103770020D02*
X168540020Y-105040020D01*
X165995053Y-100955498D02*
X165995053Y-101225052D01*
X165995053Y-101225052D02*
X168540020Y-103770020D01*
X162870000Y-99322499D02*
X163680001Y-99322499D01*
X162870000Y-99290000D02*
X162870000Y-99322499D01*
X175260000Y-107950000D02*
X177800000Y-107950000D01*
X164579510Y-99539955D02*
X165995053Y-100955498D01*
X164109991Y-99339991D02*
X164309954Y-99539954D01*
X164309954Y-99539954D02*
X164579510Y-99539955D01*
X163680001Y-99322499D02*
X163697492Y-99339990D01*
X171450000Y-107950000D02*
X175260000Y-107950000D01*
X163697492Y-99339990D02*
X164109991Y-99339991D01*
X164393109Y-99989964D02*
X165545043Y-101141898D01*
X168090010Y-109670010D02*
X168910000Y-110490000D01*
X176597919Y-110490000D02*
X177800000Y-110490000D01*
X163923590Y-99790000D02*
X164123554Y-99989964D01*
X168090010Y-103956420D02*
X168090010Y-109670010D01*
X165545043Y-101411452D02*
X168090010Y-103956420D01*
X164123554Y-99989964D02*
X164393109Y-99989964D01*
X162870000Y-99790000D02*
X163923590Y-99790000D01*
X165545043Y-101141898D02*
X165545043Y-101411452D01*
X168910000Y-110490000D02*
X176597919Y-110490000D01*
X176597919Y-113030000D02*
X177800000Y-113030000D01*
X162870000Y-100290000D02*
X163787181Y-100290001D01*
X163937152Y-100439972D02*
X164206706Y-100439972D01*
X165095032Y-101597851D02*
X167639999Y-104142819D01*
X167639999Y-104142819D02*
X167640000Y-111760000D01*
X168910000Y-113030000D02*
X176597919Y-113030000D01*
X163787181Y-100290001D02*
X163937152Y-100439972D01*
X164206706Y-100439972D02*
X165095032Y-101328298D01*
X167640000Y-111760000D02*
X168910000Y-113030000D01*
X165095032Y-101328298D02*
X165095032Y-101597851D01*
X163650770Y-100790000D02*
X163750751Y-100889981D01*
X166370000Y-103509230D02*
X166370000Y-114300000D01*
X164645021Y-101514698D02*
X164645021Y-101784250D01*
X164020304Y-100889981D02*
X164645021Y-101514698D01*
X164645021Y-101784250D02*
X166370000Y-103509230D01*
X166370000Y-114300000D02*
X167640000Y-115570000D01*
X162870000Y-100790000D02*
X163650770Y-100790000D01*
X163750751Y-100889981D02*
X164020304Y-100889981D01*
X176597919Y-115570000D02*
X177800000Y-115570000D01*
X167640000Y-115570000D02*
X176597919Y-115570000D01*
X165100000Y-102875640D02*
X165100000Y-116840000D01*
X164195010Y-101970650D02*
X165100000Y-102875640D01*
X163833903Y-101339991D02*
X164195010Y-101701098D01*
X163514360Y-101290000D02*
X163564351Y-101339991D01*
X176597919Y-118110000D02*
X177800000Y-118110000D01*
X165100000Y-116840000D02*
X166370000Y-118110000D01*
X162870000Y-101290000D02*
X163514360Y-101290000D01*
X163564351Y-101339991D02*
X163833903Y-101339991D01*
X164195010Y-101701098D02*
X164195010Y-101970650D01*
X166370000Y-118110000D02*
X176597919Y-118110000D01*
X176950001Y-119800001D02*
X177800000Y-120650000D01*
X163647502Y-101790000D02*
X163745001Y-101887499D01*
X162870000Y-101790000D02*
X163647502Y-101790000D01*
X163745001Y-101887499D02*
X163745001Y-118025001D01*
X165520001Y-119800001D02*
X176950001Y-119800001D01*
X163745001Y-118025001D02*
X165520001Y-119800001D01*
X163745001Y-92794999D02*
X175680001Y-80859999D01*
X163745001Y-93692501D02*
X163745001Y-92794999D01*
X163647502Y-93790000D02*
X163745001Y-93692501D01*
X176950001Y-80859999D02*
X177800000Y-80010000D01*
X162870000Y-93790000D02*
X163647502Y-93790000D01*
X175680001Y-80859999D02*
X176950001Y-80859999D01*
D16*
G36*
X161163000Y-101473000D02*
G01*
X158877000Y-101473000D01*
X158877000Y-94107000D01*
X161163000Y-94107000D01*
X161163000Y-101473000D01*
G37*
X161163000Y-101473000D02*
X158877000Y-101473000D01*
X158877000Y-94107000D01*
X161163000Y-94107000D01*
X161163000Y-101473000D01*
M02*
