G04 #@! TF.GenerationSoftware,KiCad,Pcbnew,(5.1.5)-3*
G04 #@! TF.CreationDate,2021-03-06T15:43:58-05:00*
G04 #@! TF.ProjectId,adc7953-breakout,61646337-3935-4332-9d62-7265616b6f75,rev?*
G04 #@! TF.SameCoordinates,Original*
G04 #@! TF.FileFunction,Legend,Top*
G04 #@! TF.FilePolarity,Positive*
%FSLAX46Y46*%
G04 Gerber Fmt 4.6, Leading zero omitted, Abs format (unit mm)*
G04 Created by KiCad (PCBNEW (5.1.5)-3) date 2021-03-06 15:43:58*
%MOMM*%
%LPD*%
G04 APERTURE LIST*
%ADD10C,0.150000*%
%ADD11C,0.750000*%
%ADD12C,0.010000*%
%ADD13C,0.120000*%
G04 APERTURE END LIST*
D10*
X154043809Y-119991666D02*
X154520000Y-119991666D01*
X153948571Y-120277380D02*
X154281904Y-119277380D01*
X154615238Y-120277380D01*
X154948571Y-120277380D02*
X154948571Y-119277380D01*
X155186666Y-119277380D01*
X155329523Y-119325000D01*
X155424761Y-119420238D01*
X155472380Y-119515476D01*
X155520000Y-119705952D01*
X155520000Y-119848809D01*
X155472380Y-120039285D01*
X155424761Y-120134523D01*
X155329523Y-120229761D01*
X155186666Y-120277380D01*
X154948571Y-120277380D01*
X155900952Y-120229761D02*
X156043809Y-120277380D01*
X156281904Y-120277380D01*
X156377142Y-120229761D01*
X156424761Y-120182142D01*
X156472380Y-120086904D01*
X156472380Y-119991666D01*
X156424761Y-119896428D01*
X156377142Y-119848809D01*
X156281904Y-119801190D01*
X156091428Y-119753571D01*
X155996190Y-119705952D01*
X155948571Y-119658333D01*
X155900952Y-119563095D01*
X155900952Y-119467857D01*
X155948571Y-119372619D01*
X155996190Y-119325000D01*
X156091428Y-119277380D01*
X156329523Y-119277380D01*
X156472380Y-119325000D01*
X156805714Y-119277380D02*
X157472380Y-119277380D01*
X157043809Y-120277380D01*
X157900952Y-120277380D02*
X158091428Y-120277380D01*
X158186666Y-120229761D01*
X158234285Y-120182142D01*
X158329523Y-120039285D01*
X158377142Y-119848809D01*
X158377142Y-119467857D01*
X158329523Y-119372619D01*
X158281904Y-119325000D01*
X158186666Y-119277380D01*
X157996190Y-119277380D01*
X157900952Y-119325000D01*
X157853333Y-119372619D01*
X157805714Y-119467857D01*
X157805714Y-119705952D01*
X157853333Y-119801190D01*
X157900952Y-119848809D01*
X157996190Y-119896428D01*
X158186666Y-119896428D01*
X158281904Y-119848809D01*
X158329523Y-119801190D01*
X158377142Y-119705952D01*
X159281904Y-119277380D02*
X158805714Y-119277380D01*
X158758095Y-119753571D01*
X158805714Y-119705952D01*
X158900952Y-119658333D01*
X159139047Y-119658333D01*
X159234285Y-119705952D01*
X159281904Y-119753571D01*
X159329523Y-119848809D01*
X159329523Y-120086904D01*
X159281904Y-120182142D01*
X159234285Y-120229761D01*
X159139047Y-120277380D01*
X158900952Y-120277380D01*
X158805714Y-120229761D01*
X158758095Y-120182142D01*
X159662857Y-119277380D02*
X160281904Y-119277380D01*
X159948571Y-119658333D01*
X160091428Y-119658333D01*
X160186666Y-119705952D01*
X160234285Y-119753571D01*
X160281904Y-119848809D01*
X160281904Y-120086904D01*
X160234285Y-120182142D01*
X160186666Y-120229761D01*
X160091428Y-120277380D01*
X159805714Y-120277380D01*
X159710476Y-120229761D01*
X159662857Y-120182142D01*
X160662857Y-120229761D02*
X160805714Y-120277380D01*
X161043809Y-120277380D01*
X161139047Y-120229761D01*
X161186666Y-120182142D01*
X161234285Y-120086904D01*
X161234285Y-119991666D01*
X161186666Y-119896428D01*
X161139047Y-119848809D01*
X161043809Y-119801190D01*
X160853333Y-119753571D01*
X160758095Y-119705952D01*
X160710476Y-119658333D01*
X160662857Y-119563095D01*
X160662857Y-119467857D01*
X160710476Y-119372619D01*
X160758095Y-119325000D01*
X160853333Y-119277380D01*
X161091428Y-119277380D01*
X161234285Y-119325000D01*
X161996190Y-119753571D02*
X162139047Y-119801190D01*
X162186666Y-119848809D01*
X162234285Y-119944047D01*
X162234285Y-120086904D01*
X162186666Y-120182142D01*
X162139047Y-120229761D01*
X162043809Y-120277380D01*
X161662857Y-120277380D01*
X161662857Y-119277380D01*
X161996190Y-119277380D01*
X162091428Y-119325000D01*
X162139047Y-119372619D01*
X162186666Y-119467857D01*
X162186666Y-119563095D01*
X162139047Y-119658333D01*
X162091428Y-119705952D01*
X161996190Y-119753571D01*
X161662857Y-119753571D01*
X162662857Y-120277380D02*
X162662857Y-119277380D01*
X162900952Y-119277380D01*
X163043809Y-119325000D01*
X163139047Y-119420238D01*
X163186666Y-119515476D01*
X163234285Y-119705952D01*
X163234285Y-119848809D01*
X163186666Y-120039285D01*
X163139047Y-120134523D01*
X163043809Y-120229761D01*
X162900952Y-120277380D01*
X162662857Y-120277380D01*
X163996190Y-119753571D02*
X164139047Y-119801190D01*
X164186666Y-119848809D01*
X164234285Y-119944047D01*
X164234285Y-120086904D01*
X164186666Y-120182142D01*
X164139047Y-120229761D01*
X164043809Y-120277380D01*
X163662857Y-120277380D01*
X163662857Y-119277380D01*
X163996190Y-119277380D01*
X164091428Y-119325000D01*
X164139047Y-119372619D01*
X164186666Y-119467857D01*
X164186666Y-119563095D01*
X164139047Y-119658333D01*
X164091428Y-119705952D01*
X163996190Y-119753571D01*
X163662857Y-119753571D01*
X164520000Y-119277380D02*
X165091428Y-119277380D01*
X164805714Y-120277380D02*
X164805714Y-119277380D01*
X165996190Y-120277380D02*
X165662857Y-119801190D01*
X165424761Y-120277380D02*
X165424761Y-119277380D01*
X165805714Y-119277380D01*
X165900952Y-119325000D01*
X165948571Y-119372619D01*
X165996190Y-119467857D01*
X165996190Y-119610714D01*
X165948571Y-119705952D01*
X165900952Y-119753571D01*
X165805714Y-119801190D01*
X165424761Y-119801190D01*
X154758095Y-121403571D02*
X154900952Y-121451190D01*
X154948571Y-121498809D01*
X154996190Y-121594047D01*
X154996190Y-121736904D01*
X154948571Y-121832142D01*
X154900952Y-121879761D01*
X154805714Y-121927380D01*
X154424761Y-121927380D01*
X154424761Y-120927380D01*
X154758095Y-120927380D01*
X154853333Y-120975000D01*
X154900952Y-121022619D01*
X154948571Y-121117857D01*
X154948571Y-121213095D01*
X154900952Y-121308333D01*
X154853333Y-121355952D01*
X154758095Y-121403571D01*
X154424761Y-121403571D01*
X155424761Y-121927380D02*
X155424761Y-121260714D01*
X155424761Y-121451190D02*
X155472380Y-121355952D01*
X155520000Y-121308333D01*
X155615238Y-121260714D01*
X155710476Y-121260714D01*
X156424761Y-121879761D02*
X156329523Y-121927380D01*
X156139047Y-121927380D01*
X156043809Y-121879761D01*
X155996190Y-121784523D01*
X155996190Y-121403571D01*
X156043809Y-121308333D01*
X156139047Y-121260714D01*
X156329523Y-121260714D01*
X156424761Y-121308333D01*
X156472380Y-121403571D01*
X156472380Y-121498809D01*
X155996190Y-121594047D01*
X157329523Y-121927380D02*
X157329523Y-121403571D01*
X157281904Y-121308333D01*
X157186666Y-121260714D01*
X156996190Y-121260714D01*
X156900952Y-121308333D01*
X157329523Y-121879761D02*
X157234285Y-121927380D01*
X156996190Y-121927380D01*
X156900952Y-121879761D01*
X156853333Y-121784523D01*
X156853333Y-121689285D01*
X156900952Y-121594047D01*
X156996190Y-121546428D01*
X157234285Y-121546428D01*
X157329523Y-121498809D01*
X157805714Y-121927380D02*
X157805714Y-120927380D01*
X157900952Y-121546428D02*
X158186666Y-121927380D01*
X158186666Y-121260714D02*
X157805714Y-121641666D01*
X158758095Y-121927380D02*
X158662857Y-121879761D01*
X158615238Y-121832142D01*
X158567619Y-121736904D01*
X158567619Y-121451190D01*
X158615238Y-121355952D01*
X158662857Y-121308333D01*
X158758095Y-121260714D01*
X158900952Y-121260714D01*
X158996190Y-121308333D01*
X159043809Y-121355952D01*
X159091428Y-121451190D01*
X159091428Y-121736904D01*
X159043809Y-121832142D01*
X158996190Y-121879761D01*
X158900952Y-121927380D01*
X158758095Y-121927380D01*
X159948571Y-121260714D02*
X159948571Y-121927380D01*
X159520000Y-121260714D02*
X159520000Y-121784523D01*
X159567619Y-121879761D01*
X159662857Y-121927380D01*
X159805714Y-121927380D01*
X159900952Y-121879761D01*
X159948571Y-121832142D01*
X160281904Y-121260714D02*
X160662857Y-121260714D01*
X160424761Y-120927380D02*
X160424761Y-121784523D01*
X160472380Y-121879761D01*
X160567619Y-121927380D01*
X160662857Y-121927380D01*
X162091428Y-121403571D02*
X162234285Y-121451190D01*
X162281904Y-121498809D01*
X162329523Y-121594047D01*
X162329523Y-121736904D01*
X162281904Y-121832142D01*
X162234285Y-121879761D01*
X162139047Y-121927380D01*
X161758095Y-121927380D01*
X161758095Y-120927380D01*
X162091428Y-120927380D01*
X162186666Y-120975000D01*
X162234285Y-121022619D01*
X162281904Y-121117857D01*
X162281904Y-121213095D01*
X162234285Y-121308333D01*
X162186666Y-121355952D01*
X162091428Y-121403571D01*
X161758095Y-121403571D01*
X162900952Y-121927380D02*
X162805714Y-121879761D01*
X162758095Y-121832142D01*
X162710476Y-121736904D01*
X162710476Y-121451190D01*
X162758095Y-121355952D01*
X162805714Y-121308333D01*
X162900952Y-121260714D01*
X163043809Y-121260714D01*
X163139047Y-121308333D01*
X163186666Y-121355952D01*
X163234285Y-121451190D01*
X163234285Y-121736904D01*
X163186666Y-121832142D01*
X163139047Y-121879761D01*
X163043809Y-121927380D01*
X162900952Y-121927380D01*
X164091428Y-121927380D02*
X164091428Y-121403571D01*
X164043809Y-121308333D01*
X163948571Y-121260714D01*
X163758095Y-121260714D01*
X163662857Y-121308333D01*
X164091428Y-121879761D02*
X163996190Y-121927380D01*
X163758095Y-121927380D01*
X163662857Y-121879761D01*
X163615238Y-121784523D01*
X163615238Y-121689285D01*
X163662857Y-121594047D01*
X163758095Y-121546428D01*
X163996190Y-121546428D01*
X164091428Y-121498809D01*
X164567619Y-121927380D02*
X164567619Y-121260714D01*
X164567619Y-121451190D02*
X164615238Y-121355952D01*
X164662857Y-121308333D01*
X164758095Y-121260714D01*
X164853333Y-121260714D01*
X165615238Y-121927380D02*
X165615238Y-120927380D01*
X165615238Y-121879761D02*
X165520000Y-121927380D01*
X165329523Y-121927380D01*
X165234285Y-121879761D01*
X165186666Y-121832142D01*
X165139047Y-121736904D01*
X165139047Y-121451190D01*
X165186666Y-121355952D01*
X165234285Y-121308333D01*
X165329523Y-121260714D01*
X165520000Y-121260714D01*
X165615238Y-121308333D01*
X171243809Y-79510000D02*
X171148571Y-79462380D01*
X171005714Y-79462380D01*
X170862857Y-79510000D01*
X170767619Y-79605238D01*
X170720000Y-79700476D01*
X170672380Y-79890952D01*
X170672380Y-80033809D01*
X170720000Y-80224285D01*
X170767619Y-80319523D01*
X170862857Y-80414761D01*
X171005714Y-80462380D01*
X171100952Y-80462380D01*
X171243809Y-80414761D01*
X171291428Y-80367142D01*
X171291428Y-80033809D01*
X171100952Y-80033809D01*
X171720000Y-80462380D02*
X171720000Y-79462380D01*
X172100952Y-79462380D01*
X172196190Y-79510000D01*
X172243809Y-79557619D01*
X172291428Y-79652857D01*
X172291428Y-79795714D01*
X172243809Y-79890952D01*
X172196190Y-79938571D01*
X172100952Y-79986190D01*
X171720000Y-79986190D01*
X172720000Y-80462380D02*
X172720000Y-79462380D01*
X173386666Y-79462380D02*
X173577142Y-79462380D01*
X173672380Y-79510000D01*
X173767619Y-79605238D01*
X173815238Y-79795714D01*
X173815238Y-80129047D01*
X173767619Y-80319523D01*
X173672380Y-80414761D01*
X173577142Y-80462380D01*
X173386666Y-80462380D01*
X173291428Y-80414761D01*
X173196190Y-80319523D01*
X173148571Y-80129047D01*
X173148571Y-79795714D01*
X173196190Y-79605238D01*
X173291428Y-79510000D01*
X173386666Y-79462380D01*
X174434285Y-79462380D02*
X174529523Y-79462380D01*
X174624761Y-79510000D01*
X174672380Y-79557619D01*
X174720000Y-79652857D01*
X174767619Y-79843333D01*
X174767619Y-80081428D01*
X174720000Y-80271904D01*
X174672380Y-80367142D01*
X174624761Y-80414761D01*
X174529523Y-80462380D01*
X174434285Y-80462380D01*
X174339047Y-80414761D01*
X174291428Y-80367142D01*
X174243809Y-80271904D01*
X174196190Y-80081428D01*
X174196190Y-79843333D01*
X174243809Y-79652857D01*
X174291428Y-79557619D01*
X174339047Y-79510000D01*
X174434285Y-79462380D01*
X170910476Y-82621428D02*
X171672380Y-82621428D01*
X171291428Y-83002380D02*
X171291428Y-82240476D01*
X172005714Y-82002380D02*
X172339047Y-83002380D01*
X172672380Y-82002380D01*
X173339047Y-82478571D02*
X173481904Y-82526190D01*
X173529523Y-82573809D01*
X173577142Y-82669047D01*
X173577142Y-82811904D01*
X173529523Y-82907142D01*
X173481904Y-82954761D01*
X173386666Y-83002380D01*
X173005714Y-83002380D01*
X173005714Y-82002380D01*
X173339047Y-82002380D01*
X173434285Y-82050000D01*
X173481904Y-82097619D01*
X173529523Y-82192857D01*
X173529523Y-82288095D01*
X173481904Y-82383333D01*
X173434285Y-82430952D01*
X173339047Y-82478571D01*
X173005714Y-82478571D01*
X174005714Y-83002380D02*
X174005714Y-82002380D01*
X174243809Y-82002380D01*
X174386666Y-82050000D01*
X174481904Y-82145238D01*
X174529523Y-82240476D01*
X174577142Y-82430952D01*
X174577142Y-82573809D01*
X174529523Y-82764285D01*
X174481904Y-82859523D01*
X174386666Y-82954761D01*
X174243809Y-83002380D01*
X174005714Y-83002380D01*
X171529523Y-84590000D02*
X171434285Y-84542380D01*
X171291428Y-84542380D01*
X171148571Y-84590000D01*
X171053333Y-84685238D01*
X171005714Y-84780476D01*
X170958095Y-84970952D01*
X170958095Y-85113809D01*
X171005714Y-85304285D01*
X171053333Y-85399523D01*
X171148571Y-85494761D01*
X171291428Y-85542380D01*
X171386666Y-85542380D01*
X171529523Y-85494761D01*
X171577142Y-85447142D01*
X171577142Y-85113809D01*
X171386666Y-85113809D01*
X172005714Y-85542380D02*
X172005714Y-84542380D01*
X172577142Y-85542380D01*
X172577142Y-84542380D01*
X173053333Y-85542380D02*
X173053333Y-84542380D01*
X173291428Y-84542380D01*
X173434285Y-84590000D01*
X173529523Y-84685238D01*
X173577142Y-84780476D01*
X173624761Y-84970952D01*
X173624761Y-85113809D01*
X173577142Y-85304285D01*
X173529523Y-85399523D01*
X173434285Y-85494761D01*
X173291428Y-85542380D01*
X173053333Y-85542380D01*
X174005714Y-85256666D02*
X174481904Y-85256666D01*
X173910476Y-85542380D02*
X174243809Y-84542380D01*
X174577142Y-85542380D01*
X171410476Y-88034761D02*
X171553333Y-88082380D01*
X171791428Y-88082380D01*
X171886666Y-88034761D01*
X171934285Y-87987142D01*
X171981904Y-87891904D01*
X171981904Y-87796666D01*
X171934285Y-87701428D01*
X171886666Y-87653809D01*
X171791428Y-87606190D01*
X171600952Y-87558571D01*
X171505714Y-87510952D01*
X171458095Y-87463333D01*
X171410476Y-87368095D01*
X171410476Y-87272857D01*
X171458095Y-87177619D01*
X171505714Y-87130000D01*
X171600952Y-87082380D01*
X171839047Y-87082380D01*
X171981904Y-87130000D01*
X172410476Y-88082380D02*
X172410476Y-87082380D01*
X172648571Y-87082380D01*
X172791428Y-87130000D01*
X172886666Y-87225238D01*
X172934285Y-87320476D01*
X172981904Y-87510952D01*
X172981904Y-87653809D01*
X172934285Y-87844285D01*
X172886666Y-87939523D01*
X172791428Y-88034761D01*
X172648571Y-88082380D01*
X172410476Y-88082380D01*
X173600952Y-87082380D02*
X173791428Y-87082380D01*
X173886666Y-87130000D01*
X173981904Y-87225238D01*
X174029523Y-87415714D01*
X174029523Y-87749047D01*
X173981904Y-87939523D01*
X173886666Y-88034761D01*
X173791428Y-88082380D01*
X173600952Y-88082380D01*
X173505714Y-88034761D01*
X173410476Y-87939523D01*
X173362857Y-87749047D01*
X173362857Y-87415714D01*
X173410476Y-87225238D01*
X173505714Y-87130000D01*
X173600952Y-87082380D01*
X171696190Y-90574761D02*
X171839047Y-90622380D01*
X172077142Y-90622380D01*
X172172380Y-90574761D01*
X172220000Y-90527142D01*
X172267619Y-90431904D01*
X172267619Y-90336666D01*
X172220000Y-90241428D01*
X172172380Y-90193809D01*
X172077142Y-90146190D01*
X171886666Y-90098571D01*
X171791428Y-90050952D01*
X171743809Y-90003333D01*
X171696190Y-89908095D01*
X171696190Y-89812857D01*
X171743809Y-89717619D01*
X171791428Y-89670000D01*
X171886666Y-89622380D01*
X172124761Y-89622380D01*
X172267619Y-89670000D01*
X172696190Y-90622380D02*
X172696190Y-89622380D01*
X172934285Y-89622380D01*
X173077142Y-89670000D01*
X173172380Y-89765238D01*
X173220000Y-89860476D01*
X173267619Y-90050952D01*
X173267619Y-90193809D01*
X173220000Y-90384285D01*
X173172380Y-90479523D01*
X173077142Y-90574761D01*
X172934285Y-90622380D01*
X172696190Y-90622380D01*
X173696190Y-90622380D02*
X173696190Y-89622380D01*
X171029523Y-93114761D02*
X171172380Y-93162380D01*
X171410476Y-93162380D01*
X171505714Y-93114761D01*
X171553333Y-93067142D01*
X171600952Y-92971904D01*
X171600952Y-92876666D01*
X171553333Y-92781428D01*
X171505714Y-92733809D01*
X171410476Y-92686190D01*
X171220000Y-92638571D01*
X171124761Y-92590952D01*
X171077142Y-92543333D01*
X171029523Y-92448095D01*
X171029523Y-92352857D01*
X171077142Y-92257619D01*
X171124761Y-92210000D01*
X171220000Y-92162380D01*
X171458095Y-92162380D01*
X171600952Y-92210000D01*
X172600952Y-93067142D02*
X172553333Y-93114761D01*
X172410476Y-93162380D01*
X172315238Y-93162380D01*
X172172380Y-93114761D01*
X172077142Y-93019523D01*
X172029523Y-92924285D01*
X171981904Y-92733809D01*
X171981904Y-92590952D01*
X172029523Y-92400476D01*
X172077142Y-92305238D01*
X172172380Y-92210000D01*
X172315238Y-92162380D01*
X172410476Y-92162380D01*
X172553333Y-92210000D01*
X172600952Y-92257619D01*
X173505714Y-93162380D02*
X173029523Y-93162380D01*
X173029523Y-92162380D01*
X173839047Y-93162380D02*
X173839047Y-92162380D01*
X174410476Y-93162380D02*
X173981904Y-92590952D01*
X174410476Y-92162380D02*
X173839047Y-92733809D01*
X172553333Y-95607142D02*
X172505714Y-95654761D01*
X172362857Y-95702380D01*
X172267619Y-95702380D01*
X172124761Y-95654761D01*
X172029523Y-95559523D01*
X171981904Y-95464285D01*
X171934285Y-95273809D01*
X171934285Y-95130952D01*
X171981904Y-94940476D01*
X172029523Y-94845238D01*
X172124761Y-94750000D01*
X172267619Y-94702380D01*
X172362857Y-94702380D01*
X172505714Y-94750000D01*
X172553333Y-94797619D01*
X172934285Y-95654761D02*
X173077142Y-95702380D01*
X173315238Y-95702380D01*
X173410476Y-95654761D01*
X173458095Y-95607142D01*
X173505714Y-95511904D01*
X173505714Y-95416666D01*
X173458095Y-95321428D01*
X173410476Y-95273809D01*
X173315238Y-95226190D01*
X173124761Y-95178571D01*
X173029523Y-95130952D01*
X172981904Y-95083333D01*
X172934285Y-94988095D01*
X172934285Y-94892857D01*
X172981904Y-94797619D01*
X173029523Y-94750000D01*
X173124761Y-94702380D01*
X173362857Y-94702380D01*
X173505714Y-94750000D01*
X171529523Y-97290000D02*
X171434285Y-97242380D01*
X171291428Y-97242380D01*
X171148571Y-97290000D01*
X171053333Y-97385238D01*
X171005714Y-97480476D01*
X170958095Y-97670952D01*
X170958095Y-97813809D01*
X171005714Y-98004285D01*
X171053333Y-98099523D01*
X171148571Y-98194761D01*
X171291428Y-98242380D01*
X171386666Y-98242380D01*
X171529523Y-98194761D01*
X171577142Y-98147142D01*
X171577142Y-97813809D01*
X171386666Y-97813809D01*
X172005714Y-98242380D02*
X172005714Y-97242380D01*
X172577142Y-98242380D01*
X172577142Y-97242380D01*
X173053333Y-98242380D02*
X173053333Y-97242380D01*
X173291428Y-97242380D01*
X173434285Y-97290000D01*
X173529523Y-97385238D01*
X173577142Y-97480476D01*
X173624761Y-97670952D01*
X173624761Y-97813809D01*
X173577142Y-98004285D01*
X173529523Y-98099523D01*
X173434285Y-98194761D01*
X173291428Y-98242380D01*
X173053333Y-98242380D01*
X174005714Y-97956666D02*
X174481904Y-97956666D01*
X173910476Y-98242380D02*
X174243809Y-97242380D01*
X174577142Y-98242380D01*
X171529523Y-99782380D02*
X171862857Y-100782380D01*
X172196190Y-99782380D01*
X172481904Y-100496666D02*
X172958095Y-100496666D01*
X172386666Y-100782380D02*
X172720000Y-99782380D01*
X173053333Y-100782380D01*
X173339047Y-100496666D02*
X173815238Y-100496666D01*
X173243809Y-100782380D02*
X173577142Y-99782380D01*
X173910476Y-100782380D01*
X172029523Y-103227142D02*
X171981904Y-103274761D01*
X171839047Y-103322380D01*
X171743809Y-103322380D01*
X171600952Y-103274761D01*
X171505714Y-103179523D01*
X171458095Y-103084285D01*
X171410476Y-102893809D01*
X171410476Y-102750952D01*
X171458095Y-102560476D01*
X171505714Y-102465238D01*
X171600952Y-102370000D01*
X171743809Y-102322380D01*
X171839047Y-102322380D01*
X171981904Y-102370000D01*
X172029523Y-102417619D01*
X172458095Y-103322380D02*
X172458095Y-102322380D01*
X172458095Y-102798571D02*
X173029523Y-102798571D01*
X173029523Y-103322380D02*
X173029523Y-102322380D01*
X173696190Y-102322380D02*
X173791428Y-102322380D01*
X173886666Y-102370000D01*
X173934285Y-102417619D01*
X173981904Y-102512857D01*
X174029523Y-102703333D01*
X174029523Y-102941428D01*
X173981904Y-103131904D01*
X173934285Y-103227142D01*
X173886666Y-103274761D01*
X173791428Y-103322380D01*
X173696190Y-103322380D01*
X173600952Y-103274761D01*
X173553333Y-103227142D01*
X173505714Y-103131904D01*
X173458095Y-102941428D01*
X173458095Y-102703333D01*
X173505714Y-102512857D01*
X173553333Y-102417619D01*
X173600952Y-102370000D01*
X173696190Y-102322380D01*
X172029523Y-108307142D02*
X171981904Y-108354761D01*
X171839047Y-108402380D01*
X171743809Y-108402380D01*
X171600952Y-108354761D01*
X171505714Y-108259523D01*
X171458095Y-108164285D01*
X171410476Y-107973809D01*
X171410476Y-107830952D01*
X171458095Y-107640476D01*
X171505714Y-107545238D01*
X171600952Y-107450000D01*
X171743809Y-107402380D01*
X171839047Y-107402380D01*
X171981904Y-107450000D01*
X172029523Y-107497619D01*
X172458095Y-108402380D02*
X172458095Y-107402380D01*
X172458095Y-107878571D02*
X173029523Y-107878571D01*
X173029523Y-108402380D02*
X173029523Y-107402380D01*
X173458095Y-107497619D02*
X173505714Y-107450000D01*
X173600952Y-107402380D01*
X173839047Y-107402380D01*
X173934285Y-107450000D01*
X173981904Y-107497619D01*
X174029523Y-107592857D01*
X174029523Y-107688095D01*
X173981904Y-107830952D01*
X173410476Y-108402380D01*
X174029523Y-108402380D01*
X172029523Y-110847142D02*
X171981904Y-110894761D01*
X171839047Y-110942380D01*
X171743809Y-110942380D01*
X171600952Y-110894761D01*
X171505714Y-110799523D01*
X171458095Y-110704285D01*
X171410476Y-110513809D01*
X171410476Y-110370952D01*
X171458095Y-110180476D01*
X171505714Y-110085238D01*
X171600952Y-109990000D01*
X171743809Y-109942380D01*
X171839047Y-109942380D01*
X171981904Y-109990000D01*
X172029523Y-110037619D01*
X172458095Y-110942380D02*
X172458095Y-109942380D01*
X172458095Y-110418571D02*
X173029523Y-110418571D01*
X173029523Y-110942380D02*
X173029523Y-109942380D01*
X173410476Y-109942380D02*
X174029523Y-109942380D01*
X173696190Y-110323333D01*
X173839047Y-110323333D01*
X173934285Y-110370952D01*
X173981904Y-110418571D01*
X174029523Y-110513809D01*
X174029523Y-110751904D01*
X173981904Y-110847142D01*
X173934285Y-110894761D01*
X173839047Y-110942380D01*
X173553333Y-110942380D01*
X173458095Y-110894761D01*
X173410476Y-110847142D01*
X172029523Y-113387142D02*
X171981904Y-113434761D01*
X171839047Y-113482380D01*
X171743809Y-113482380D01*
X171600952Y-113434761D01*
X171505714Y-113339523D01*
X171458095Y-113244285D01*
X171410476Y-113053809D01*
X171410476Y-112910952D01*
X171458095Y-112720476D01*
X171505714Y-112625238D01*
X171600952Y-112530000D01*
X171743809Y-112482380D01*
X171839047Y-112482380D01*
X171981904Y-112530000D01*
X172029523Y-112577619D01*
X172458095Y-113482380D02*
X172458095Y-112482380D01*
X172458095Y-112958571D02*
X173029523Y-112958571D01*
X173029523Y-113482380D02*
X173029523Y-112482380D01*
X173934285Y-112815714D02*
X173934285Y-113482380D01*
X173696190Y-112434761D02*
X173458095Y-113149047D01*
X174077142Y-113149047D01*
X172029523Y-115927142D02*
X171981904Y-115974761D01*
X171839047Y-116022380D01*
X171743809Y-116022380D01*
X171600952Y-115974761D01*
X171505714Y-115879523D01*
X171458095Y-115784285D01*
X171410476Y-115593809D01*
X171410476Y-115450952D01*
X171458095Y-115260476D01*
X171505714Y-115165238D01*
X171600952Y-115070000D01*
X171743809Y-115022380D01*
X171839047Y-115022380D01*
X171981904Y-115070000D01*
X172029523Y-115117619D01*
X172458095Y-116022380D02*
X172458095Y-115022380D01*
X172458095Y-115498571D02*
X173029523Y-115498571D01*
X173029523Y-116022380D02*
X173029523Y-115022380D01*
X173981904Y-115022380D02*
X173505714Y-115022380D01*
X173458095Y-115498571D01*
X173505714Y-115450952D01*
X173600952Y-115403333D01*
X173839047Y-115403333D01*
X173934285Y-115450952D01*
X173981904Y-115498571D01*
X174029523Y-115593809D01*
X174029523Y-115831904D01*
X173981904Y-115927142D01*
X173934285Y-115974761D01*
X173839047Y-116022380D01*
X173600952Y-116022380D01*
X173505714Y-115974761D01*
X173458095Y-115927142D01*
X172029523Y-118467142D02*
X171981904Y-118514761D01*
X171839047Y-118562380D01*
X171743809Y-118562380D01*
X171600952Y-118514761D01*
X171505714Y-118419523D01*
X171458095Y-118324285D01*
X171410476Y-118133809D01*
X171410476Y-117990952D01*
X171458095Y-117800476D01*
X171505714Y-117705238D01*
X171600952Y-117610000D01*
X171743809Y-117562380D01*
X171839047Y-117562380D01*
X171981904Y-117610000D01*
X172029523Y-117657619D01*
X172458095Y-118562380D02*
X172458095Y-117562380D01*
X172458095Y-118038571D02*
X173029523Y-118038571D01*
X173029523Y-118562380D02*
X173029523Y-117562380D01*
X173934285Y-117562380D02*
X173743809Y-117562380D01*
X173648571Y-117610000D01*
X173600952Y-117657619D01*
X173505714Y-117800476D01*
X173458095Y-117990952D01*
X173458095Y-118371904D01*
X173505714Y-118467142D01*
X173553333Y-118514761D01*
X173648571Y-118562380D01*
X173839047Y-118562380D01*
X173934285Y-118514761D01*
X173981904Y-118467142D01*
X174029523Y-118371904D01*
X174029523Y-118133809D01*
X173981904Y-118038571D01*
X173934285Y-117990952D01*
X173839047Y-117943333D01*
X173648571Y-117943333D01*
X173553333Y-117990952D01*
X173505714Y-118038571D01*
X173458095Y-118133809D01*
X172029523Y-121007142D02*
X171981904Y-121054761D01*
X171839047Y-121102380D01*
X171743809Y-121102380D01*
X171600952Y-121054761D01*
X171505714Y-120959523D01*
X171458095Y-120864285D01*
X171410476Y-120673809D01*
X171410476Y-120530952D01*
X171458095Y-120340476D01*
X171505714Y-120245238D01*
X171600952Y-120150000D01*
X171743809Y-120102380D01*
X171839047Y-120102380D01*
X171981904Y-120150000D01*
X172029523Y-120197619D01*
X172458095Y-121102380D02*
X172458095Y-120102380D01*
X172458095Y-120578571D02*
X173029523Y-120578571D01*
X173029523Y-121102380D02*
X173029523Y-120102380D01*
X173410476Y-120102380D02*
X174077142Y-120102380D01*
X173648571Y-121102380D01*
X171529523Y-122690000D02*
X171434285Y-122642380D01*
X171291428Y-122642380D01*
X171148571Y-122690000D01*
X171053333Y-122785238D01*
X171005714Y-122880476D01*
X170958095Y-123070952D01*
X170958095Y-123213809D01*
X171005714Y-123404285D01*
X171053333Y-123499523D01*
X171148571Y-123594761D01*
X171291428Y-123642380D01*
X171386666Y-123642380D01*
X171529523Y-123594761D01*
X171577142Y-123547142D01*
X171577142Y-123213809D01*
X171386666Y-123213809D01*
X172005714Y-123642380D02*
X172005714Y-122642380D01*
X172577142Y-123642380D01*
X172577142Y-122642380D01*
X173053333Y-123642380D02*
X173053333Y-122642380D01*
X173291428Y-122642380D01*
X173434285Y-122690000D01*
X173529523Y-122785238D01*
X173577142Y-122880476D01*
X173624761Y-123070952D01*
X173624761Y-123213809D01*
X173577142Y-123404285D01*
X173529523Y-123499523D01*
X173434285Y-123594761D01*
X173291428Y-123642380D01*
X173053333Y-123642380D01*
X174005714Y-123356666D02*
X174481904Y-123356666D01*
X173910476Y-123642380D02*
X174243809Y-122642380D01*
X174577142Y-123642380D01*
X144859523Y-122690000D02*
X144764285Y-122642380D01*
X144621428Y-122642380D01*
X144478571Y-122690000D01*
X144383333Y-122785238D01*
X144335714Y-122880476D01*
X144288095Y-123070952D01*
X144288095Y-123213809D01*
X144335714Y-123404285D01*
X144383333Y-123499523D01*
X144478571Y-123594761D01*
X144621428Y-123642380D01*
X144716666Y-123642380D01*
X144859523Y-123594761D01*
X144907142Y-123547142D01*
X144907142Y-123213809D01*
X144716666Y-123213809D01*
X145335714Y-123642380D02*
X145335714Y-122642380D01*
X145907142Y-123642380D01*
X145907142Y-122642380D01*
X146383333Y-123642380D02*
X146383333Y-122642380D01*
X146621428Y-122642380D01*
X146764285Y-122690000D01*
X146859523Y-122785238D01*
X146907142Y-122880476D01*
X146954761Y-123070952D01*
X146954761Y-123213809D01*
X146907142Y-123404285D01*
X146859523Y-123499523D01*
X146764285Y-123594761D01*
X146621428Y-123642380D01*
X146383333Y-123642380D01*
X147335714Y-123356666D02*
X147811904Y-123356666D01*
X147240476Y-123642380D02*
X147573809Y-122642380D01*
X147907142Y-123642380D01*
X145359523Y-121007142D02*
X145311904Y-121054761D01*
X145169047Y-121102380D01*
X145073809Y-121102380D01*
X144930952Y-121054761D01*
X144835714Y-120959523D01*
X144788095Y-120864285D01*
X144740476Y-120673809D01*
X144740476Y-120530952D01*
X144788095Y-120340476D01*
X144835714Y-120245238D01*
X144930952Y-120150000D01*
X145073809Y-120102380D01*
X145169047Y-120102380D01*
X145311904Y-120150000D01*
X145359523Y-120197619D01*
X145788095Y-121102380D02*
X145788095Y-120102380D01*
X145788095Y-120578571D02*
X146359523Y-120578571D01*
X146359523Y-121102380D02*
X146359523Y-120102380D01*
X146978571Y-120530952D02*
X146883333Y-120483333D01*
X146835714Y-120435714D01*
X146788095Y-120340476D01*
X146788095Y-120292857D01*
X146835714Y-120197619D01*
X146883333Y-120150000D01*
X146978571Y-120102380D01*
X147169047Y-120102380D01*
X147264285Y-120150000D01*
X147311904Y-120197619D01*
X147359523Y-120292857D01*
X147359523Y-120340476D01*
X147311904Y-120435714D01*
X147264285Y-120483333D01*
X147169047Y-120530952D01*
X146978571Y-120530952D01*
X146883333Y-120578571D01*
X146835714Y-120626190D01*
X146788095Y-120721428D01*
X146788095Y-120911904D01*
X146835714Y-121007142D01*
X146883333Y-121054761D01*
X146978571Y-121102380D01*
X147169047Y-121102380D01*
X147264285Y-121054761D01*
X147311904Y-121007142D01*
X147359523Y-120911904D01*
X147359523Y-120721428D01*
X147311904Y-120626190D01*
X147264285Y-120578571D01*
X147169047Y-120530952D01*
X145359523Y-118467142D02*
X145311904Y-118514761D01*
X145169047Y-118562380D01*
X145073809Y-118562380D01*
X144930952Y-118514761D01*
X144835714Y-118419523D01*
X144788095Y-118324285D01*
X144740476Y-118133809D01*
X144740476Y-117990952D01*
X144788095Y-117800476D01*
X144835714Y-117705238D01*
X144930952Y-117610000D01*
X145073809Y-117562380D01*
X145169047Y-117562380D01*
X145311904Y-117610000D01*
X145359523Y-117657619D01*
X145788095Y-118562380D02*
X145788095Y-117562380D01*
X145788095Y-118038571D02*
X146359523Y-118038571D01*
X146359523Y-118562380D02*
X146359523Y-117562380D01*
X146883333Y-118562380D02*
X147073809Y-118562380D01*
X147169047Y-118514761D01*
X147216666Y-118467142D01*
X147311904Y-118324285D01*
X147359523Y-118133809D01*
X147359523Y-117752857D01*
X147311904Y-117657619D01*
X147264285Y-117610000D01*
X147169047Y-117562380D01*
X146978571Y-117562380D01*
X146883333Y-117610000D01*
X146835714Y-117657619D01*
X146788095Y-117752857D01*
X146788095Y-117990952D01*
X146835714Y-118086190D01*
X146883333Y-118133809D01*
X146978571Y-118181428D01*
X147169047Y-118181428D01*
X147264285Y-118133809D01*
X147311904Y-118086190D01*
X147359523Y-117990952D01*
X144883333Y-115927142D02*
X144835714Y-115974761D01*
X144692857Y-116022380D01*
X144597619Y-116022380D01*
X144454761Y-115974761D01*
X144359523Y-115879523D01*
X144311904Y-115784285D01*
X144264285Y-115593809D01*
X144264285Y-115450952D01*
X144311904Y-115260476D01*
X144359523Y-115165238D01*
X144454761Y-115070000D01*
X144597619Y-115022380D01*
X144692857Y-115022380D01*
X144835714Y-115070000D01*
X144883333Y-115117619D01*
X145311904Y-116022380D02*
X145311904Y-115022380D01*
X145311904Y-115498571D02*
X145883333Y-115498571D01*
X145883333Y-116022380D02*
X145883333Y-115022380D01*
X146883333Y-116022380D02*
X146311904Y-116022380D01*
X146597619Y-116022380D02*
X146597619Y-115022380D01*
X146502380Y-115165238D01*
X146407142Y-115260476D01*
X146311904Y-115308095D01*
X147264285Y-115117619D02*
X147311904Y-115070000D01*
X147407142Y-115022380D01*
X147645238Y-115022380D01*
X147740476Y-115070000D01*
X147788095Y-115117619D01*
X147835714Y-115212857D01*
X147835714Y-115308095D01*
X147788095Y-115450952D01*
X147216666Y-116022380D01*
X147835714Y-116022380D01*
X144883333Y-113387142D02*
X144835714Y-113434761D01*
X144692857Y-113482380D01*
X144597619Y-113482380D01*
X144454761Y-113434761D01*
X144359523Y-113339523D01*
X144311904Y-113244285D01*
X144264285Y-113053809D01*
X144264285Y-112910952D01*
X144311904Y-112720476D01*
X144359523Y-112625238D01*
X144454761Y-112530000D01*
X144597619Y-112482380D01*
X144692857Y-112482380D01*
X144835714Y-112530000D01*
X144883333Y-112577619D01*
X145311904Y-113482380D02*
X145311904Y-112482380D01*
X145311904Y-112958571D02*
X145883333Y-112958571D01*
X145883333Y-113482380D02*
X145883333Y-112482380D01*
X146883333Y-113482380D02*
X146311904Y-113482380D01*
X146597619Y-113482380D02*
X146597619Y-112482380D01*
X146502380Y-112625238D01*
X146407142Y-112720476D01*
X146311904Y-112768095D01*
X147835714Y-113482380D02*
X147264285Y-113482380D01*
X147550000Y-113482380D02*
X147550000Y-112482380D01*
X147454761Y-112625238D01*
X147359523Y-112720476D01*
X147264285Y-112768095D01*
X145264285Y-110942380D02*
X145264285Y-109942380D01*
X145835714Y-110942380D01*
X145835714Y-109942380D01*
X146883333Y-110847142D02*
X146835714Y-110894761D01*
X146692857Y-110942380D01*
X146597619Y-110942380D01*
X146454761Y-110894761D01*
X146359523Y-110799523D01*
X146311904Y-110704285D01*
X146264285Y-110513809D01*
X146264285Y-110370952D01*
X146311904Y-110180476D01*
X146359523Y-110085238D01*
X146454761Y-109990000D01*
X146597619Y-109942380D01*
X146692857Y-109942380D01*
X146835714Y-109990000D01*
X146883333Y-110037619D01*
X145264285Y-108402380D02*
X145264285Y-107402380D01*
X145835714Y-108402380D01*
X145835714Y-107402380D01*
X146883333Y-108307142D02*
X146835714Y-108354761D01*
X146692857Y-108402380D01*
X146597619Y-108402380D01*
X146454761Y-108354761D01*
X146359523Y-108259523D01*
X146311904Y-108164285D01*
X146264285Y-107973809D01*
X146264285Y-107830952D01*
X146311904Y-107640476D01*
X146359523Y-107545238D01*
X146454761Y-107450000D01*
X146597619Y-107402380D01*
X146692857Y-107402380D01*
X146835714Y-107450000D01*
X146883333Y-107497619D01*
X145264285Y-105862380D02*
X145264285Y-104862380D01*
X145835714Y-105862380D01*
X145835714Y-104862380D01*
X146883333Y-105767142D02*
X146835714Y-105814761D01*
X146692857Y-105862380D01*
X146597619Y-105862380D01*
X146454761Y-105814761D01*
X146359523Y-105719523D01*
X146311904Y-105624285D01*
X146264285Y-105433809D01*
X146264285Y-105290952D01*
X146311904Y-105100476D01*
X146359523Y-105005238D01*
X146454761Y-104910000D01*
X146597619Y-104862380D01*
X146692857Y-104862380D01*
X146835714Y-104910000D01*
X146883333Y-104957619D01*
X145264285Y-103322380D02*
X145264285Y-102322380D01*
X145835714Y-103322380D01*
X145835714Y-102322380D01*
X146883333Y-103227142D02*
X146835714Y-103274761D01*
X146692857Y-103322380D01*
X146597619Y-103322380D01*
X146454761Y-103274761D01*
X146359523Y-103179523D01*
X146311904Y-103084285D01*
X146264285Y-102893809D01*
X146264285Y-102750952D01*
X146311904Y-102560476D01*
X146359523Y-102465238D01*
X146454761Y-102370000D01*
X146597619Y-102322380D01*
X146692857Y-102322380D01*
X146835714Y-102370000D01*
X146883333Y-102417619D01*
X144859523Y-99830000D02*
X144764285Y-99782380D01*
X144621428Y-99782380D01*
X144478571Y-99830000D01*
X144383333Y-99925238D01*
X144335714Y-100020476D01*
X144288095Y-100210952D01*
X144288095Y-100353809D01*
X144335714Y-100544285D01*
X144383333Y-100639523D01*
X144478571Y-100734761D01*
X144621428Y-100782380D01*
X144716666Y-100782380D01*
X144859523Y-100734761D01*
X144907142Y-100687142D01*
X144907142Y-100353809D01*
X144716666Y-100353809D01*
X145335714Y-100782380D02*
X145335714Y-99782380D01*
X145907142Y-100782380D01*
X145907142Y-99782380D01*
X146383333Y-100782380D02*
X146383333Y-99782380D01*
X146621428Y-99782380D01*
X146764285Y-99830000D01*
X146859523Y-99925238D01*
X146907142Y-100020476D01*
X146954761Y-100210952D01*
X146954761Y-100353809D01*
X146907142Y-100544285D01*
X146859523Y-100639523D01*
X146764285Y-100734761D01*
X146621428Y-100782380D01*
X146383333Y-100782380D01*
X147335714Y-100496666D02*
X147811904Y-100496666D01*
X147240476Y-100782380D02*
X147573809Y-99782380D01*
X147907142Y-100782380D01*
X144859523Y-97290000D02*
X144764285Y-97242380D01*
X144621428Y-97242380D01*
X144478571Y-97290000D01*
X144383333Y-97385238D01*
X144335714Y-97480476D01*
X144288095Y-97670952D01*
X144288095Y-97813809D01*
X144335714Y-98004285D01*
X144383333Y-98099523D01*
X144478571Y-98194761D01*
X144621428Y-98242380D01*
X144716666Y-98242380D01*
X144859523Y-98194761D01*
X144907142Y-98147142D01*
X144907142Y-97813809D01*
X144716666Y-97813809D01*
X145335714Y-98242380D02*
X145335714Y-97242380D01*
X145907142Y-98242380D01*
X145907142Y-97242380D01*
X146383333Y-98242380D02*
X146383333Y-97242380D01*
X146621428Y-97242380D01*
X146764285Y-97290000D01*
X146859523Y-97385238D01*
X146907142Y-97480476D01*
X146954761Y-97670952D01*
X146954761Y-97813809D01*
X146907142Y-98004285D01*
X146859523Y-98099523D01*
X146764285Y-98194761D01*
X146621428Y-98242380D01*
X146383333Y-98242380D01*
X147335714Y-97956666D02*
X147811904Y-97956666D01*
X147240476Y-98242380D02*
X147573809Y-97242380D01*
X147907142Y-98242380D01*
X144550000Y-95416666D02*
X145026190Y-95416666D01*
X144454761Y-95702380D02*
X144788095Y-94702380D01*
X145121428Y-95702380D01*
X145454761Y-95702380D02*
X145454761Y-94702380D01*
X145930952Y-95702380D02*
X145930952Y-94702380D01*
X146502380Y-95702380D01*
X146502380Y-94702380D01*
X146978571Y-95702380D02*
X146978571Y-94702380D01*
X147359523Y-94702380D01*
X147454761Y-94750000D01*
X147502380Y-94797619D01*
X147550000Y-94892857D01*
X147550000Y-95035714D01*
X147502380Y-95130952D01*
X147454761Y-95178571D01*
X147359523Y-95226190D01*
X146978571Y-95226190D01*
X144716666Y-93162380D02*
X144716666Y-92162380D01*
X145050000Y-92876666D01*
X145383333Y-92162380D01*
X145383333Y-93162380D01*
X145764285Y-92162380D02*
X146430952Y-93162380D01*
X146430952Y-92162380D02*
X145764285Y-93162380D01*
X147002380Y-92162380D02*
X147192857Y-92162380D01*
X147288095Y-92210000D01*
X147383333Y-92305238D01*
X147430952Y-92495714D01*
X147430952Y-92829047D01*
X147383333Y-93019523D01*
X147288095Y-93114761D01*
X147192857Y-93162380D01*
X147002380Y-93162380D01*
X146907142Y-93114761D01*
X146811904Y-93019523D01*
X146764285Y-92829047D01*
X146764285Y-92495714D01*
X146811904Y-92305238D01*
X146907142Y-92210000D01*
X147002380Y-92162380D01*
X145369569Y-89615926D02*
X145274331Y-89568306D01*
X145131474Y-89568306D01*
X144988617Y-89615926D01*
X144893379Y-89711164D01*
X144845760Y-89806402D01*
X144798141Y-89996878D01*
X144798141Y-90139735D01*
X144845760Y-90330211D01*
X144893379Y-90425449D01*
X144988617Y-90520687D01*
X145131474Y-90568306D01*
X145226712Y-90568306D01*
X145369569Y-90520687D01*
X145417188Y-90473068D01*
X145417188Y-90139735D01*
X145226712Y-90139735D01*
X145845760Y-90568306D02*
X145845760Y-89568306D01*
X146417188Y-90568306D01*
X146417188Y-89568306D01*
X146893379Y-90568306D02*
X146893379Y-89568306D01*
X147131474Y-89568306D01*
X147274331Y-89615926D01*
X147369569Y-89711164D01*
X147417188Y-89806402D01*
X147464807Y-89996878D01*
X147464807Y-90139735D01*
X147417188Y-90330211D01*
X147369569Y-90425449D01*
X147274331Y-90520687D01*
X147131474Y-90568306D01*
X146893379Y-90568306D01*
X147845760Y-90282592D02*
X148321950Y-90282592D01*
X147750522Y-90568306D02*
X148083855Y-89568306D01*
X148417188Y-90568306D01*
X144859523Y-87077444D02*
X145192857Y-88077444D01*
X145526190Y-87077444D01*
X145811904Y-87791730D02*
X146288095Y-87791730D01*
X145716666Y-88077444D02*
X146050000Y-87077444D01*
X146383333Y-88077444D01*
X146669047Y-87791730D02*
X147145238Y-87791730D01*
X146573809Y-88077444D02*
X146907142Y-87077444D01*
X147240476Y-88077444D01*
X145402584Y-85521065D02*
X145069251Y-85044875D01*
X144831155Y-85521065D02*
X144831155Y-84521065D01*
X145212108Y-84521065D01*
X145307346Y-84568685D01*
X145354965Y-84616304D01*
X145402584Y-84711542D01*
X145402584Y-84854399D01*
X145354965Y-84949637D01*
X145307346Y-84997256D01*
X145212108Y-85044875D01*
X144831155Y-85044875D01*
X145831155Y-84997256D02*
X146164489Y-84997256D01*
X146307346Y-85521065D02*
X145831155Y-85521065D01*
X145831155Y-84521065D01*
X146307346Y-84521065D01*
X147069251Y-84997256D02*
X146735917Y-84997256D01*
X146735917Y-85521065D02*
X146735917Y-84521065D01*
X147212108Y-84521065D01*
X147593060Y-85521065D02*
X147593060Y-84521065D01*
X147974013Y-84521065D01*
X148069251Y-84568685D01*
X148116870Y-84616304D01*
X148164489Y-84711542D01*
X148164489Y-84854399D01*
X148116870Y-84949637D01*
X148069251Y-84997256D01*
X147974013Y-85044875D01*
X147593060Y-85044875D01*
X145312214Y-82073741D02*
X145216976Y-82026121D01*
X145074119Y-82026121D01*
X144931262Y-82073741D01*
X144836024Y-82168979D01*
X144788405Y-82264217D01*
X144740786Y-82454693D01*
X144740786Y-82597550D01*
X144788405Y-82788026D01*
X144836024Y-82883264D01*
X144931262Y-82978502D01*
X145074119Y-83026121D01*
X145169357Y-83026121D01*
X145312214Y-82978502D01*
X145359833Y-82930883D01*
X145359833Y-82597550D01*
X145169357Y-82597550D01*
X145788405Y-83026121D02*
X145788405Y-82026121D01*
X146359833Y-83026121D01*
X146359833Y-82026121D01*
X146836024Y-83026121D02*
X146836024Y-82026121D01*
X147074119Y-82026121D01*
X147216976Y-82073741D01*
X147312214Y-82168979D01*
X147359833Y-82264217D01*
X147407452Y-82454693D01*
X147407452Y-82597550D01*
X147359833Y-82788026D01*
X147312214Y-82883264D01*
X147216976Y-82978502D01*
X147074119Y-83026121D01*
X146836024Y-83026121D01*
X147788405Y-82740407D02*
X148264595Y-82740407D01*
X147693167Y-83026121D02*
X148026500Y-82026121D01*
X148359833Y-83026121D01*
X145296922Y-79505064D02*
X145201684Y-79457444D01*
X145058827Y-79457444D01*
X144915970Y-79505064D01*
X144820732Y-79600302D01*
X144773113Y-79695540D01*
X144725493Y-79886016D01*
X144725493Y-80028873D01*
X144773113Y-80219349D01*
X144820732Y-80314587D01*
X144915970Y-80409825D01*
X145058827Y-80457444D01*
X145154065Y-80457444D01*
X145296922Y-80409825D01*
X145344541Y-80362206D01*
X145344541Y-80028873D01*
X145154065Y-80028873D01*
X145773113Y-80457444D02*
X145773113Y-79457444D01*
X146154065Y-79457444D01*
X146249303Y-79505064D01*
X146296922Y-79552683D01*
X146344541Y-79647921D01*
X146344541Y-79790778D01*
X146296922Y-79886016D01*
X146249303Y-79933635D01*
X146154065Y-79981254D01*
X145773113Y-79981254D01*
X146773113Y-80457444D02*
X146773113Y-79457444D01*
X147439779Y-79457444D02*
X147630255Y-79457444D01*
X147725493Y-79505064D01*
X147820732Y-79600302D01*
X147868351Y-79790778D01*
X147868351Y-80124111D01*
X147820732Y-80314587D01*
X147725493Y-80409825D01*
X147630255Y-80457444D01*
X147439779Y-80457444D01*
X147344541Y-80409825D01*
X147249303Y-80314587D01*
X147201684Y-80124111D01*
X147201684Y-79790778D01*
X147249303Y-79600302D01*
X147344541Y-79505064D01*
X147439779Y-79457444D01*
X148201684Y-79457444D02*
X148820732Y-79457444D01*
X148487398Y-79838397D01*
X148630255Y-79838397D01*
X148725493Y-79886016D01*
X148773113Y-79933635D01*
X148820732Y-80028873D01*
X148820732Y-80266968D01*
X148773113Y-80362206D01*
X148725493Y-80409825D01*
X148630255Y-80457444D01*
X148344541Y-80457444D01*
X148249303Y-80409825D01*
X148201684Y-80362206D01*
X145296922Y-76965064D02*
X145201684Y-76917444D01*
X145058827Y-76917444D01*
X144915970Y-76965064D01*
X144820732Y-77060302D01*
X144773113Y-77155540D01*
X144725493Y-77346016D01*
X144725493Y-77488873D01*
X144773113Y-77679349D01*
X144820732Y-77774587D01*
X144915970Y-77869825D01*
X145058827Y-77917444D01*
X145154065Y-77917444D01*
X145296922Y-77869825D01*
X145344541Y-77822206D01*
X145344541Y-77488873D01*
X145154065Y-77488873D01*
X145773113Y-77917444D02*
X145773113Y-76917444D01*
X146154065Y-76917444D01*
X146249303Y-76965064D01*
X146296922Y-77012683D01*
X146344541Y-77107921D01*
X146344541Y-77250778D01*
X146296922Y-77346016D01*
X146249303Y-77393635D01*
X146154065Y-77441254D01*
X145773113Y-77441254D01*
X146773113Y-77917444D02*
X146773113Y-76917444D01*
X147439779Y-76917444D02*
X147630255Y-76917444D01*
X147725493Y-76965064D01*
X147820732Y-77060302D01*
X147868351Y-77250778D01*
X147868351Y-77584111D01*
X147820732Y-77774587D01*
X147725493Y-77869825D01*
X147630255Y-77917444D01*
X147439779Y-77917444D01*
X147344541Y-77869825D01*
X147249303Y-77774587D01*
X147201684Y-77584111D01*
X147201684Y-77250778D01*
X147249303Y-77060302D01*
X147344541Y-76965064D01*
X147439779Y-76917444D01*
X148249303Y-77012683D02*
X148296922Y-76965064D01*
X148392160Y-76917444D01*
X148630255Y-76917444D01*
X148725493Y-76965064D01*
X148773113Y-77012683D01*
X148820732Y-77107921D01*
X148820732Y-77203159D01*
X148773113Y-77346016D01*
X148201684Y-77917444D01*
X148820732Y-77917444D01*
X168529047Y-100401428D02*
X169290952Y-100401428D01*
X168910000Y-100782380D02*
X168910000Y-100020476D01*
D11*
X156210000Y-91511428D02*
X156067142Y-91654285D01*
X156210000Y-91797142D01*
X156352857Y-91654285D01*
X156210000Y-91511428D01*
X156210000Y-91797142D01*
D10*
X149479047Y-100401428D02*
X150240952Y-100401428D01*
X149860000Y-100782380D02*
X149860000Y-100020476D01*
X149479047Y-91511428D02*
X150240952Y-91511428D01*
X149860000Y-91892380D02*
X149860000Y-91130476D01*
D12*
G36*
X161357674Y-80719158D02*
G01*
X161412725Y-80749103D01*
X161432069Y-80784104D01*
X161416061Y-80825207D01*
X161400003Y-80843425D01*
X161370163Y-80865794D01*
X161335637Y-80868667D01*
X161299210Y-80860437D01*
X161222104Y-80856793D01*
X161145344Y-80884263D01*
X161075152Y-80938154D01*
X161017754Y-81013773D01*
X160981077Y-81100296D01*
X160974897Y-81139802D01*
X160969662Y-81207510D01*
X160965786Y-81295340D01*
X160963685Y-81395211D01*
X160963428Y-81444073D01*
X160962211Y-81569035D01*
X160958464Y-81659799D01*
X160952042Y-81718374D01*
X160942803Y-81746767D01*
X160941657Y-81748085D01*
X160900810Y-81767987D01*
X160854733Y-81763837D01*
X160820489Y-81737489D01*
X160818924Y-81734764D01*
X160812872Y-81704953D01*
X160807854Y-81642031D01*
X160803992Y-81549158D01*
X160801404Y-81429497D01*
X160800211Y-81286209D01*
X160800143Y-81239464D01*
X160800380Y-81091215D01*
X160801519Y-80975286D01*
X160804202Y-80887713D01*
X160809073Y-80824532D01*
X160816773Y-80781779D01*
X160827946Y-80755488D01*
X160843233Y-80741697D01*
X160863277Y-80736441D01*
X160881785Y-80735714D01*
X160927350Y-80747229D01*
X160953865Y-80784277D01*
X160963781Y-80850619D01*
X160963980Y-80861807D01*
X160965499Y-80909506D01*
X160970524Y-80925461D01*
X160981060Y-80914183D01*
X160984551Y-80908071D01*
X161043842Y-80827462D01*
X161119243Y-80764541D01*
X161202914Y-80723276D01*
X161287016Y-80707637D01*
X161357674Y-80719158D01*
G37*
X161357674Y-80719158D02*
X161412725Y-80749103D01*
X161432069Y-80784104D01*
X161416061Y-80825207D01*
X161400003Y-80843425D01*
X161370163Y-80865794D01*
X161335637Y-80868667D01*
X161299210Y-80860437D01*
X161222104Y-80856793D01*
X161145344Y-80884263D01*
X161075152Y-80938154D01*
X161017754Y-81013773D01*
X160981077Y-81100296D01*
X160974897Y-81139802D01*
X160969662Y-81207510D01*
X160965786Y-81295340D01*
X160963685Y-81395211D01*
X160963428Y-81444073D01*
X160962211Y-81569035D01*
X160958464Y-81659799D01*
X160952042Y-81718374D01*
X160942803Y-81746767D01*
X160941657Y-81748085D01*
X160900810Y-81767987D01*
X160854733Y-81763837D01*
X160820489Y-81737489D01*
X160818924Y-81734764D01*
X160812872Y-81704953D01*
X160807854Y-81642031D01*
X160803992Y-81549158D01*
X160801404Y-81429497D01*
X160800211Y-81286209D01*
X160800143Y-81239464D01*
X160800380Y-81091215D01*
X160801519Y-80975286D01*
X160804202Y-80887713D01*
X160809073Y-80824532D01*
X160816773Y-80781779D01*
X160827946Y-80755488D01*
X160843233Y-80741697D01*
X160863277Y-80736441D01*
X160881785Y-80735714D01*
X160927350Y-80747229D01*
X160953865Y-80784277D01*
X160963781Y-80850619D01*
X160963980Y-80861807D01*
X160965499Y-80909506D01*
X160970524Y-80925461D01*
X160981060Y-80914183D01*
X160984551Y-80908071D01*
X161043842Y-80827462D01*
X161119243Y-80764541D01*
X161202914Y-80723276D01*
X161287016Y-80707637D01*
X161357674Y-80719158D01*
G36*
X158387429Y-80289781D02*
G01*
X158405286Y-80299876D01*
X158414066Y-80310748D01*
X158421128Y-80333766D01*
X158426788Y-80372989D01*
X158431362Y-80432476D01*
X158435168Y-80516284D01*
X158438522Y-80628473D01*
X158441571Y-80764666D01*
X158450643Y-81212279D01*
X158718669Y-80972832D01*
X158813738Y-80888639D01*
X158886348Y-80826404D01*
X158940460Y-80783212D01*
X158980032Y-80756147D01*
X159009025Y-80742294D01*
X159031399Y-80738737D01*
X159036169Y-80739085D01*
X159075076Y-80752460D01*
X159090480Y-80787359D01*
X159091212Y-80792904D01*
X159089942Y-80815072D01*
X159078379Y-80839995D01*
X159052635Y-80872155D01*
X159008822Y-80916037D01*
X158943052Y-80976122D01*
X158896658Y-81017218D01*
X158696535Y-81193414D01*
X158913767Y-81426397D01*
X158984434Y-81503648D01*
X159045491Y-81573182D01*
X159092904Y-81630177D01*
X159122638Y-81669808D01*
X159131000Y-81686108D01*
X159115871Y-81724909D01*
X159080521Y-81757742D01*
X159043525Y-81770231D01*
X159021631Y-81757717D01*
X158979818Y-81722778D01*
X158922726Y-81669700D01*
X158854997Y-81602770D01*
X158793518Y-81539236D01*
X158573964Y-81307865D01*
X158507768Y-81358356D01*
X158441571Y-81408846D01*
X158441571Y-81567580D01*
X158439254Y-81657498D01*
X158430783Y-81716989D01*
X158413877Y-81751704D01*
X158386255Y-81767295D01*
X158359928Y-81769857D01*
X158318294Y-81760032D01*
X158300057Y-81748085D01*
X158294110Y-81732027D01*
X158289232Y-81695256D01*
X158285351Y-81635365D01*
X158282395Y-81549944D01*
X158280291Y-81436585D01*
X158278967Y-81292878D01*
X158278351Y-81116413D01*
X158278286Y-81023010D01*
X158278350Y-80844668D01*
X158278657Y-80699159D01*
X158279373Y-80583033D01*
X158280667Y-80492837D01*
X158282705Y-80425119D01*
X158285656Y-80376427D01*
X158289688Y-80343310D01*
X158294968Y-80322315D01*
X158301664Y-80309992D01*
X158309944Y-80302887D01*
X158313378Y-80300924D01*
X158354673Y-80284207D01*
X158387429Y-80289781D01*
G37*
X158387429Y-80289781D02*
X158405286Y-80299876D01*
X158414066Y-80310748D01*
X158421128Y-80333766D01*
X158426788Y-80372989D01*
X158431362Y-80432476D01*
X158435168Y-80516284D01*
X158438522Y-80628473D01*
X158441571Y-80764666D01*
X158450643Y-81212279D01*
X158718669Y-80972832D01*
X158813738Y-80888639D01*
X158886348Y-80826404D01*
X158940460Y-80783212D01*
X158980032Y-80756147D01*
X159009025Y-80742294D01*
X159031399Y-80738737D01*
X159036169Y-80739085D01*
X159075076Y-80752460D01*
X159090480Y-80787359D01*
X159091212Y-80792904D01*
X159089942Y-80815072D01*
X159078379Y-80839995D01*
X159052635Y-80872155D01*
X159008822Y-80916037D01*
X158943052Y-80976122D01*
X158896658Y-81017218D01*
X158696535Y-81193414D01*
X158913767Y-81426397D01*
X158984434Y-81503648D01*
X159045491Y-81573182D01*
X159092904Y-81630177D01*
X159122638Y-81669808D01*
X159131000Y-81686108D01*
X159115871Y-81724909D01*
X159080521Y-81757742D01*
X159043525Y-81770231D01*
X159021631Y-81757717D01*
X158979818Y-81722778D01*
X158922726Y-81669700D01*
X158854997Y-81602770D01*
X158793518Y-81539236D01*
X158573964Y-81307865D01*
X158507768Y-81358356D01*
X158441571Y-81408846D01*
X158441571Y-81567580D01*
X158439254Y-81657498D01*
X158430783Y-81716989D01*
X158413877Y-81751704D01*
X158386255Y-81767295D01*
X158359928Y-81769857D01*
X158318294Y-81760032D01*
X158300057Y-81748085D01*
X158294110Y-81732027D01*
X158289232Y-81695256D01*
X158285351Y-81635365D01*
X158282395Y-81549944D01*
X158280291Y-81436585D01*
X158278967Y-81292878D01*
X158278351Y-81116413D01*
X158278286Y-81023010D01*
X158278350Y-80844668D01*
X158278657Y-80699159D01*
X158279373Y-80583033D01*
X158280667Y-80492837D01*
X158282705Y-80425119D01*
X158285656Y-80376427D01*
X158289688Y-80343310D01*
X158294968Y-80322315D01*
X158301664Y-80309992D01*
X158309944Y-80302887D01*
X158313378Y-80300924D01*
X158354673Y-80284207D01*
X158387429Y-80289781D01*
G36*
X156586103Y-80719158D02*
G01*
X156641154Y-80749103D01*
X156660498Y-80784104D01*
X156644489Y-80825207D01*
X156628432Y-80843425D01*
X156598592Y-80865794D01*
X156564066Y-80868667D01*
X156527639Y-80860437D01*
X156450533Y-80856793D01*
X156373772Y-80884263D01*
X156303581Y-80938154D01*
X156246182Y-81013773D01*
X156209505Y-81100296D01*
X156203326Y-81139802D01*
X156198091Y-81207510D01*
X156194215Y-81295340D01*
X156192114Y-81395211D01*
X156191857Y-81444073D01*
X156190640Y-81569035D01*
X156186892Y-81659799D01*
X156180471Y-81718374D01*
X156171231Y-81746767D01*
X156170086Y-81748085D01*
X156129239Y-81767987D01*
X156083161Y-81763837D01*
X156048918Y-81737489D01*
X156047352Y-81734764D01*
X156041300Y-81704953D01*
X156036283Y-81642031D01*
X156032421Y-81549158D01*
X156029833Y-81429497D01*
X156028639Y-81286209D01*
X156028571Y-81239464D01*
X156028808Y-81091215D01*
X156029947Y-80975286D01*
X156032631Y-80887713D01*
X156037501Y-80824532D01*
X156045202Y-80781779D01*
X156056374Y-80755488D01*
X156071661Y-80741697D01*
X156091705Y-80736441D01*
X156110214Y-80735714D01*
X156155779Y-80747229D01*
X156182294Y-80784277D01*
X156192210Y-80850619D01*
X156192409Y-80861807D01*
X156193928Y-80909506D01*
X156198953Y-80925461D01*
X156209489Y-80914183D01*
X156212980Y-80908071D01*
X156272271Y-80827462D01*
X156347671Y-80764541D01*
X156431343Y-80723276D01*
X156515444Y-80707637D01*
X156586103Y-80719158D01*
G37*
X156586103Y-80719158D02*
X156641154Y-80749103D01*
X156660498Y-80784104D01*
X156644489Y-80825207D01*
X156628432Y-80843425D01*
X156598592Y-80865794D01*
X156564066Y-80868667D01*
X156527639Y-80860437D01*
X156450533Y-80856793D01*
X156373772Y-80884263D01*
X156303581Y-80938154D01*
X156246182Y-81013773D01*
X156209505Y-81100296D01*
X156203326Y-81139802D01*
X156198091Y-81207510D01*
X156194215Y-81295340D01*
X156192114Y-81395211D01*
X156191857Y-81444073D01*
X156190640Y-81569035D01*
X156186892Y-81659799D01*
X156180471Y-81718374D01*
X156171231Y-81746767D01*
X156170086Y-81748085D01*
X156129239Y-81767987D01*
X156083161Y-81763837D01*
X156048918Y-81737489D01*
X156047352Y-81734764D01*
X156041300Y-81704953D01*
X156036283Y-81642031D01*
X156032421Y-81549158D01*
X156029833Y-81429497D01*
X156028639Y-81286209D01*
X156028571Y-81239464D01*
X156028808Y-81091215D01*
X156029947Y-80975286D01*
X156032631Y-80887713D01*
X156037501Y-80824532D01*
X156045202Y-80781779D01*
X156056374Y-80755488D01*
X156071661Y-80741697D01*
X156091705Y-80736441D01*
X156110214Y-80735714D01*
X156155779Y-80747229D01*
X156182294Y-80784277D01*
X156192210Y-80850619D01*
X156192409Y-80861807D01*
X156193928Y-80909506D01*
X156198953Y-80925461D01*
X156209489Y-80914183D01*
X156212980Y-80908071D01*
X156272271Y-80827462D01*
X156347671Y-80764541D01*
X156431343Y-80723276D01*
X156515444Y-80707637D01*
X156586103Y-80719158D01*
G36*
X160047930Y-80727465D02*
G01*
X160161185Y-80777217D01*
X160260787Y-80860584D01*
X160265538Y-80865778D01*
X160330529Y-80951030D01*
X160370812Y-81040743D01*
X160391824Y-81136474D01*
X160397485Y-81180849D01*
X160396899Y-81214983D01*
X160386062Y-81240219D01*
X160360970Y-81257902D01*
X160317619Y-81269374D01*
X160252005Y-81275977D01*
X160160125Y-81279055D01*
X160037975Y-81279951D01*
X159963930Y-81280000D01*
X159583880Y-81280000D01*
X159595564Y-81329893D01*
X159636489Y-81439600D01*
X159700917Y-81530026D01*
X159783827Y-81595411D01*
X159851682Y-81623623D01*
X159946371Y-81640425D01*
X160033922Y-81633149D01*
X160123765Y-81599748D01*
X160216011Y-81544551D01*
X160294093Y-81491601D01*
X160331225Y-81528733D01*
X160355987Y-81561646D01*
X160353590Y-81592353D01*
X160348120Y-81603676D01*
X160315746Y-81641839D01*
X160261021Y-81685915D01*
X160195192Y-81728110D01*
X160129504Y-81760628D01*
X160112542Y-81766979D01*
X160035916Y-81782398D01*
X159942445Y-81786276D01*
X159849612Y-81778826D01*
X159782007Y-81762952D01*
X159657029Y-81703826D01*
X159561413Y-81625445D01*
X159494213Y-81526247D01*
X159454488Y-81404670D01*
X159441292Y-81259151D01*
X159442809Y-81201470D01*
X159454212Y-81112178D01*
X159603013Y-81112178D01*
X159611792Y-81120891D01*
X159640926Y-81127236D01*
X159694214Y-81131489D01*
X159775458Y-81133930D01*
X159888457Y-81134836D01*
X159913411Y-81134857D01*
X160224107Y-81134857D01*
X160212445Y-81076549D01*
X160183364Y-81008981D01*
X160129153Y-80944865D01*
X160060073Y-80895656D01*
X160043261Y-80887694D01*
X159948651Y-80865118D01*
X159850884Y-80872360D01*
X159759226Y-80906423D01*
X159682940Y-80964307D01*
X159643909Y-81016928D01*
X159619257Y-81065551D01*
X159604677Y-81103093D01*
X159603013Y-81112178D01*
X159454212Y-81112178D01*
X159458889Y-81075565D01*
X159495196Y-80972958D01*
X159555975Y-80884370D01*
X159614308Y-80826647D01*
X159708753Y-80759396D01*
X159808943Y-80722465D01*
X159921066Y-80711349D01*
X160047930Y-80727465D01*
G37*
X160047930Y-80727465D02*
X160161185Y-80777217D01*
X160260787Y-80860584D01*
X160265538Y-80865778D01*
X160330529Y-80951030D01*
X160370812Y-81040743D01*
X160391824Y-81136474D01*
X160397485Y-81180849D01*
X160396899Y-81214983D01*
X160386062Y-81240219D01*
X160360970Y-81257902D01*
X160317619Y-81269374D01*
X160252005Y-81275977D01*
X160160125Y-81279055D01*
X160037975Y-81279951D01*
X159963930Y-81280000D01*
X159583880Y-81280000D01*
X159595564Y-81329893D01*
X159636489Y-81439600D01*
X159700917Y-81530026D01*
X159783827Y-81595411D01*
X159851682Y-81623623D01*
X159946371Y-81640425D01*
X160033922Y-81633149D01*
X160123765Y-81599748D01*
X160216011Y-81544551D01*
X160294093Y-81491601D01*
X160331225Y-81528733D01*
X160355987Y-81561646D01*
X160353590Y-81592353D01*
X160348120Y-81603676D01*
X160315746Y-81641839D01*
X160261021Y-81685915D01*
X160195192Y-81728110D01*
X160129504Y-81760628D01*
X160112542Y-81766979D01*
X160035916Y-81782398D01*
X159942445Y-81786276D01*
X159849612Y-81778826D01*
X159782007Y-81762952D01*
X159657029Y-81703826D01*
X159561413Y-81625445D01*
X159494213Y-81526247D01*
X159454488Y-81404670D01*
X159441292Y-81259151D01*
X159442809Y-81201470D01*
X159454212Y-81112178D01*
X159603013Y-81112178D01*
X159611792Y-81120891D01*
X159640926Y-81127236D01*
X159694214Y-81131489D01*
X159775458Y-81133930D01*
X159888457Y-81134836D01*
X159913411Y-81134857D01*
X160224107Y-81134857D01*
X160212445Y-81076549D01*
X160183364Y-81008981D01*
X160129153Y-80944865D01*
X160060073Y-80895656D01*
X160043261Y-80887694D01*
X159948651Y-80865118D01*
X159850884Y-80872360D01*
X159759226Y-80906423D01*
X159682940Y-80964307D01*
X159643909Y-81016928D01*
X159619257Y-81065551D01*
X159604677Y-81103093D01*
X159603013Y-81112178D01*
X159454212Y-81112178D01*
X159458889Y-81075565D01*
X159495196Y-80972958D01*
X159555975Y-80884370D01*
X159614308Y-80826647D01*
X159708753Y-80759396D01*
X159808943Y-80722465D01*
X159921066Y-80711349D01*
X160047930Y-80727465D01*
G36*
X157526073Y-80727465D02*
G01*
X157639328Y-80777217D01*
X157738930Y-80860584D01*
X157743681Y-80865778D01*
X157808672Y-80951030D01*
X157848955Y-81040743D01*
X157869967Y-81136474D01*
X157875628Y-81180849D01*
X157875042Y-81214983D01*
X157864205Y-81240219D01*
X157839112Y-81257902D01*
X157795761Y-81269374D01*
X157730148Y-81275977D01*
X157638268Y-81279055D01*
X157516118Y-81279951D01*
X157442072Y-81280000D01*
X157062023Y-81280000D01*
X157073707Y-81329893D01*
X157114632Y-81439600D01*
X157179060Y-81530026D01*
X157261970Y-81595411D01*
X157329825Y-81623623D01*
X157424514Y-81640425D01*
X157512065Y-81633149D01*
X157601907Y-81599748D01*
X157694154Y-81544551D01*
X157772236Y-81491601D01*
X157809368Y-81528733D01*
X157834130Y-81561646D01*
X157831733Y-81592353D01*
X157826263Y-81603676D01*
X157793889Y-81641839D01*
X157739164Y-81685915D01*
X157673335Y-81728110D01*
X157607646Y-81760628D01*
X157590685Y-81766979D01*
X157514059Y-81782398D01*
X157420588Y-81786276D01*
X157327755Y-81778826D01*
X157260150Y-81762952D01*
X157135172Y-81703826D01*
X157039555Y-81625445D01*
X156972356Y-81526247D01*
X156932631Y-81404670D01*
X156919435Y-81259151D01*
X156920952Y-81201470D01*
X156932355Y-81112178D01*
X157081155Y-81112178D01*
X157089935Y-81120891D01*
X157119068Y-81127236D01*
X157172357Y-81131489D01*
X157253601Y-81133930D01*
X157366600Y-81134836D01*
X157391553Y-81134857D01*
X157702250Y-81134857D01*
X157690588Y-81076549D01*
X157661507Y-81008981D01*
X157607296Y-80944865D01*
X157538215Y-80895656D01*
X157521404Y-80887694D01*
X157426794Y-80865118D01*
X157329027Y-80872360D01*
X157237369Y-80906423D01*
X157161083Y-80964307D01*
X157122051Y-81016928D01*
X157097399Y-81065551D01*
X157082820Y-81103093D01*
X157081155Y-81112178D01*
X156932355Y-81112178D01*
X156937032Y-81075565D01*
X156973338Y-80972958D01*
X157034117Y-80884370D01*
X157092451Y-80826647D01*
X157186896Y-80759396D01*
X157287086Y-80722465D01*
X157399209Y-80711349D01*
X157526073Y-80727465D01*
G37*
X157526073Y-80727465D02*
X157639328Y-80777217D01*
X157738930Y-80860584D01*
X157743681Y-80865778D01*
X157808672Y-80951030D01*
X157848955Y-81040743D01*
X157869967Y-81136474D01*
X157875628Y-81180849D01*
X157875042Y-81214983D01*
X157864205Y-81240219D01*
X157839112Y-81257902D01*
X157795761Y-81269374D01*
X157730148Y-81275977D01*
X157638268Y-81279055D01*
X157516118Y-81279951D01*
X157442072Y-81280000D01*
X157062023Y-81280000D01*
X157073707Y-81329893D01*
X157114632Y-81439600D01*
X157179060Y-81530026D01*
X157261970Y-81595411D01*
X157329825Y-81623623D01*
X157424514Y-81640425D01*
X157512065Y-81633149D01*
X157601907Y-81599748D01*
X157694154Y-81544551D01*
X157772236Y-81491601D01*
X157809368Y-81528733D01*
X157834130Y-81561646D01*
X157831733Y-81592353D01*
X157826263Y-81603676D01*
X157793889Y-81641839D01*
X157739164Y-81685915D01*
X157673335Y-81728110D01*
X157607646Y-81760628D01*
X157590685Y-81766979D01*
X157514059Y-81782398D01*
X157420588Y-81786276D01*
X157327755Y-81778826D01*
X157260150Y-81762952D01*
X157135172Y-81703826D01*
X157039555Y-81625445D01*
X156972356Y-81526247D01*
X156932631Y-81404670D01*
X156919435Y-81259151D01*
X156920952Y-81201470D01*
X156932355Y-81112178D01*
X157081155Y-81112178D01*
X157089935Y-81120891D01*
X157119068Y-81127236D01*
X157172357Y-81131489D01*
X157253601Y-81133930D01*
X157366600Y-81134836D01*
X157391553Y-81134857D01*
X157702250Y-81134857D01*
X157690588Y-81076549D01*
X157661507Y-81008981D01*
X157607296Y-80944865D01*
X157538215Y-80895656D01*
X157521404Y-80887694D01*
X157426794Y-80865118D01*
X157329027Y-80872360D01*
X157237369Y-80906423D01*
X157161083Y-80964307D01*
X157122051Y-81016928D01*
X157097399Y-81065551D01*
X157082820Y-81103093D01*
X157081155Y-81112178D01*
X156932355Y-81112178D01*
X156937032Y-81075565D01*
X156973338Y-80972958D01*
X157034117Y-80884370D01*
X157092451Y-80826647D01*
X157186896Y-80759396D01*
X157287086Y-80722465D01*
X157399209Y-80711349D01*
X157526073Y-80727465D01*
G36*
X154731878Y-80288034D02*
G01*
X154759764Y-80300924D01*
X154773077Y-80310582D01*
X154782534Y-80326760D01*
X154788786Y-80355088D01*
X154792486Y-80401194D01*
X154794286Y-80470704D01*
X154794837Y-80569248D01*
X154794857Y-80603840D01*
X154794857Y-80887975D01*
X154853821Y-80832019D01*
X154941041Y-80763479D01*
X155031029Y-80725169D01*
X155135836Y-80712241D01*
X155151796Y-80712176D01*
X155280134Y-80729682D01*
X155392699Y-80779508D01*
X155487947Y-80860597D01*
X155564336Y-80971891D01*
X155581507Y-81006935D01*
X155609342Y-81100042D01*
X155620917Y-81211999D01*
X155616379Y-81329290D01*
X155595874Y-81438401D01*
X155576237Y-81493712D01*
X155529364Y-81573037D01*
X155463844Y-81649853D01*
X155389235Y-81715027D01*
X155315092Y-81759430D01*
X155287787Y-81769307D01*
X155165123Y-81786322D01*
X155043218Y-81771964D01*
X154930712Y-81728256D01*
X154844750Y-81665607D01*
X154794857Y-81617925D01*
X154794857Y-81674452D01*
X154783403Y-81729197D01*
X154754413Y-81770845D01*
X154715941Y-81787984D01*
X154714730Y-81788000D01*
X154685570Y-81775629D01*
X154661597Y-81754821D01*
X154653853Y-81743241D01*
X154647550Y-81724981D01*
X154642543Y-81696540D01*
X154638687Y-81654416D01*
X154635838Y-81595109D01*
X154633849Y-81515118D01*
X154632575Y-81410941D01*
X154631873Y-81279077D01*
X154631745Y-81203254D01*
X154799367Y-81203254D01*
X154802883Y-81336405D01*
X154834251Y-81446417D01*
X154893617Y-81533579D01*
X154981128Y-81598183D01*
X155002749Y-81608754D01*
X155091729Y-81637660D01*
X155174167Y-81636697D01*
X155243811Y-81614951D01*
X155320796Y-81573774D01*
X155376203Y-81519026D01*
X155415194Y-81454578D01*
X155453018Y-81346324D01*
X155462981Y-81231735D01*
X155445935Y-81120182D01*
X155402733Y-81021036D01*
X155371972Y-80979478D01*
X155299101Y-80911707D01*
X155222155Y-80874494D01*
X155130392Y-80862728D01*
X155126582Y-80862714D01*
X155021018Y-80878947D01*
X154931120Y-80927837D01*
X154860585Y-81003591D01*
X154829170Y-81056044D01*
X154810710Y-81112165D01*
X154800631Y-81186873D01*
X154799367Y-81203254D01*
X154631745Y-81203254D01*
X154631596Y-81116025D01*
X154631571Y-81030403D01*
X154631721Y-80851281D01*
X154632260Y-80705009D01*
X154633324Y-80588156D01*
X154635051Y-80497286D01*
X154637575Y-80428966D01*
X154641032Y-80379763D01*
X154645560Y-80346242D01*
X154651293Y-80324971D01*
X154658368Y-80312515D01*
X154660081Y-80310653D01*
X154694957Y-80285733D01*
X154731878Y-80288034D01*
G37*
X154731878Y-80288034D02*
X154759764Y-80300924D01*
X154773077Y-80310582D01*
X154782534Y-80326760D01*
X154788786Y-80355088D01*
X154792486Y-80401194D01*
X154794286Y-80470704D01*
X154794837Y-80569248D01*
X154794857Y-80603840D01*
X154794857Y-80887975D01*
X154853821Y-80832019D01*
X154941041Y-80763479D01*
X155031029Y-80725169D01*
X155135836Y-80712241D01*
X155151796Y-80712176D01*
X155280134Y-80729682D01*
X155392699Y-80779508D01*
X155487947Y-80860597D01*
X155564336Y-80971891D01*
X155581507Y-81006935D01*
X155609342Y-81100042D01*
X155620917Y-81211999D01*
X155616379Y-81329290D01*
X155595874Y-81438401D01*
X155576237Y-81493712D01*
X155529364Y-81573037D01*
X155463844Y-81649853D01*
X155389235Y-81715027D01*
X155315092Y-81759430D01*
X155287787Y-81769307D01*
X155165123Y-81786322D01*
X155043218Y-81771964D01*
X154930712Y-81728256D01*
X154844750Y-81665607D01*
X154794857Y-81617925D01*
X154794857Y-81674452D01*
X154783403Y-81729197D01*
X154754413Y-81770845D01*
X154715941Y-81787984D01*
X154714730Y-81788000D01*
X154685570Y-81775629D01*
X154661597Y-81754821D01*
X154653853Y-81743241D01*
X154647550Y-81724981D01*
X154642543Y-81696540D01*
X154638687Y-81654416D01*
X154635838Y-81595109D01*
X154633849Y-81515118D01*
X154632575Y-81410941D01*
X154631873Y-81279077D01*
X154631745Y-81203254D01*
X154799367Y-81203254D01*
X154802883Y-81336405D01*
X154834251Y-81446417D01*
X154893617Y-81533579D01*
X154981128Y-81598183D01*
X155002749Y-81608754D01*
X155091729Y-81637660D01*
X155174167Y-81636697D01*
X155243811Y-81614951D01*
X155320796Y-81573774D01*
X155376203Y-81519026D01*
X155415194Y-81454578D01*
X155453018Y-81346324D01*
X155462981Y-81231735D01*
X155445935Y-81120182D01*
X155402733Y-81021036D01*
X155371972Y-80979478D01*
X155299101Y-80911707D01*
X155222155Y-80874494D01*
X155130392Y-80862728D01*
X155126582Y-80862714D01*
X155021018Y-80878947D01*
X154931120Y-80927837D01*
X154860585Y-81003591D01*
X154829170Y-81056044D01*
X154810710Y-81112165D01*
X154800631Y-81186873D01*
X154799367Y-81203254D01*
X154631745Y-81203254D01*
X154631596Y-81116025D01*
X154631571Y-81030403D01*
X154631721Y-80851281D01*
X154632260Y-80705009D01*
X154633324Y-80588156D01*
X154635051Y-80497286D01*
X154637575Y-80428966D01*
X154641032Y-80379763D01*
X154645560Y-80346242D01*
X154651293Y-80324971D01*
X154658368Y-80312515D01*
X154660081Y-80310653D01*
X154694957Y-80285733D01*
X154731878Y-80288034D01*
G36*
X169099471Y-82554037D02*
G01*
X169123914Y-82601182D01*
X169119416Y-82640992D01*
X169084493Y-82685580D01*
X169083182Y-82686896D01*
X169038649Y-82731428D01*
X154013065Y-82731428D01*
X153968532Y-82686896D01*
X153932807Y-82642026D01*
X153927547Y-82602244D01*
X153951265Y-82555439D01*
X153952243Y-82554037D01*
X153980486Y-82513714D01*
X169071228Y-82513714D01*
X169099471Y-82554037D01*
G37*
X169099471Y-82554037D02*
X169123914Y-82601182D01*
X169119416Y-82640992D01*
X169084493Y-82685580D01*
X169083182Y-82686896D01*
X169038649Y-82731428D01*
X154013065Y-82731428D01*
X153968532Y-82686896D01*
X153932807Y-82642026D01*
X153927547Y-82602244D01*
X153951265Y-82555439D01*
X153952243Y-82554037D01*
X153980486Y-82513714D01*
X169071228Y-82513714D01*
X169099471Y-82554037D01*
G36*
X151152720Y-82514908D02*
G01*
X151197955Y-82519989D01*
X151225485Y-82531202D01*
X151244580Y-82550795D01*
X151246900Y-82554037D01*
X151271281Y-82611034D01*
X151262747Y-82660327D01*
X151224389Y-82698703D01*
X151159298Y-82722947D01*
X151077660Y-82729996D01*
X151016218Y-82727535D01*
X150967281Y-82722742D01*
X150948571Y-82718838D01*
X150902674Y-82686377D01*
X150879808Y-82637525D01*
X150882724Y-82584499D01*
X150909178Y-82543740D01*
X150939698Y-82526652D01*
X150989355Y-82517119D01*
X151065980Y-82513768D01*
X151080507Y-82513714D01*
X151152720Y-82514908D01*
G37*
X151152720Y-82514908D02*
X151197955Y-82519989D01*
X151225485Y-82531202D01*
X151244580Y-82550795D01*
X151246900Y-82554037D01*
X151271281Y-82611034D01*
X151262747Y-82660327D01*
X151224389Y-82698703D01*
X151159298Y-82722947D01*
X151077660Y-82729996D01*
X151016218Y-82727535D01*
X150967281Y-82722742D01*
X150948571Y-82718838D01*
X150902674Y-82686377D01*
X150879808Y-82637525D01*
X150882724Y-82584499D01*
X150909178Y-82543740D01*
X150939698Y-82526652D01*
X150989355Y-82517119D01*
X151065980Y-82513768D01*
X151080507Y-82513714D01*
X151152720Y-82514908D01*
G36*
X151691799Y-82235601D02*
G01*
X151718736Y-82247824D01*
X151738153Y-82273546D01*
X151751255Y-82317142D01*
X151759241Y-82382991D01*
X151763315Y-82475469D01*
X151764679Y-82598952D01*
X151764732Y-82627932D01*
X151764658Y-82739739D01*
X151763713Y-82821140D01*
X151761151Y-82878013D01*
X151756228Y-82916238D01*
X151748198Y-82941693D01*
X151736317Y-82960257D01*
X151720467Y-82977182D01*
X151680994Y-83011467D01*
X151650164Y-83018318D01*
X151614232Y-82998853D01*
X151599188Y-82987069D01*
X151583680Y-82973171D01*
X151572345Y-82956616D01*
X151564417Y-82931801D01*
X151559132Y-82893121D01*
X151555722Y-82834972D01*
X151553424Y-82751750D01*
X151551469Y-82637850D01*
X151551469Y-82637819D01*
X151550220Y-82505899D01*
X151551858Y-82405887D01*
X151557504Y-82333451D01*
X151568275Y-82284258D01*
X151585291Y-82253973D01*
X151609672Y-82238263D01*
X151642536Y-82232796D01*
X151656143Y-82232500D01*
X151691799Y-82235601D01*
G37*
X151691799Y-82235601D02*
X151718736Y-82247824D01*
X151738153Y-82273546D01*
X151751255Y-82317142D01*
X151759241Y-82382991D01*
X151763315Y-82475469D01*
X151764679Y-82598952D01*
X151764732Y-82627932D01*
X151764658Y-82739739D01*
X151763713Y-82821140D01*
X151761151Y-82878013D01*
X151756228Y-82916238D01*
X151748198Y-82941693D01*
X151736317Y-82960257D01*
X151720467Y-82977182D01*
X151680994Y-83011467D01*
X151650164Y-83018318D01*
X151614232Y-82998853D01*
X151599188Y-82987069D01*
X151583680Y-82973171D01*
X151572345Y-82956616D01*
X151564417Y-82931801D01*
X151559132Y-82893121D01*
X151555722Y-82834972D01*
X151553424Y-82751750D01*
X151551469Y-82637850D01*
X151551469Y-82637819D01*
X151550220Y-82505899D01*
X151551858Y-82405887D01*
X151557504Y-82333451D01*
X151568275Y-82284258D01*
X151585291Y-82253973D01*
X151609672Y-82238263D01*
X151642536Y-82232796D01*
X151656143Y-82232500D01*
X151691799Y-82235601D01*
G36*
X153627615Y-81831815D02*
G01*
X153659632Y-81852796D01*
X153666783Y-81863475D01*
X153672650Y-81882054D01*
X153677356Y-81911847D01*
X153681025Y-81956163D01*
X153683779Y-82018317D01*
X153685741Y-82101620D01*
X153687033Y-82209385D01*
X153687779Y-82344923D01*
X153688101Y-82511546D01*
X153688143Y-82621646D01*
X153687892Y-82815224D01*
X153687087Y-82975192D01*
X153685648Y-83104225D01*
X153683495Y-83204996D01*
X153680548Y-83280178D01*
X153676726Y-83332444D01*
X153671950Y-83364468D01*
X153666140Y-83378924D01*
X153665464Y-83379533D01*
X153612079Y-83406795D01*
X153562153Y-83399582D01*
X153535086Y-83382241D01*
X153488571Y-83345652D01*
X153488571Y-82614995D01*
X153488655Y-82432403D01*
X153489008Y-82282669D01*
X153489777Y-82162368D01*
X153491114Y-82068073D01*
X153493167Y-81996356D01*
X153496086Y-81943793D01*
X153500021Y-81906955D01*
X153505120Y-81882416D01*
X153511533Y-81866750D01*
X153519410Y-81856530D01*
X153521750Y-81854312D01*
X153573595Y-81827536D01*
X153627615Y-81831815D01*
G37*
X153627615Y-81831815D02*
X153659632Y-81852796D01*
X153666783Y-81863475D01*
X153672650Y-81882054D01*
X153677356Y-81911847D01*
X153681025Y-81956163D01*
X153683779Y-82018317D01*
X153685741Y-82101620D01*
X153687033Y-82209385D01*
X153687779Y-82344923D01*
X153688101Y-82511546D01*
X153688143Y-82621646D01*
X153687892Y-82815224D01*
X153687087Y-82975192D01*
X153685648Y-83104225D01*
X153683495Y-83204996D01*
X153680548Y-83280178D01*
X153676726Y-83332444D01*
X153671950Y-83364468D01*
X153666140Y-83378924D01*
X153665464Y-83379533D01*
X153612079Y-83406795D01*
X153562153Y-83399582D01*
X153535086Y-83382241D01*
X153488571Y-83345652D01*
X153488571Y-82614995D01*
X153488655Y-82432403D01*
X153489008Y-82282669D01*
X153489777Y-82162368D01*
X153491114Y-82068073D01*
X153493167Y-81996356D01*
X153496086Y-81943793D01*
X153500021Y-81906955D01*
X153505120Y-81882416D01*
X153511533Y-81866750D01*
X153519410Y-81856530D01*
X153521750Y-81854312D01*
X153573595Y-81827536D01*
X153627615Y-81831815D01*
G36*
X152476033Y-81831406D02*
G01*
X152515116Y-81857464D01*
X152522694Y-81868788D01*
X152528890Y-81886666D01*
X152533839Y-81914512D01*
X152537675Y-81955743D01*
X152540533Y-82013772D01*
X152542546Y-82092015D01*
X152543848Y-82193887D01*
X152544574Y-82322802D01*
X152544858Y-82482176D01*
X152544865Y-82614928D01*
X152544480Y-82774000D01*
X152543499Y-82921977D01*
X152541995Y-83054874D01*
X152540042Y-83168704D01*
X152537710Y-83259479D01*
X152535075Y-83323214D01*
X152532208Y-83355920D01*
X152531258Y-83359177D01*
X152487150Y-83396863D01*
X152431644Y-83406099D01*
X152398851Y-83396473D01*
X152354643Y-83374437D01*
X152349907Y-82628071D01*
X152348851Y-82441811D01*
X152348338Y-82288517D01*
X152348472Y-82164873D01*
X152349354Y-82067562D01*
X152351087Y-81993268D01*
X152353774Y-81938673D01*
X152357518Y-81900462D01*
X152362420Y-81875318D01*
X152368584Y-81859924D01*
X152373881Y-81852996D01*
X152422125Y-81827422D01*
X152476033Y-81831406D01*
G37*
X152476033Y-81831406D02*
X152515116Y-81857464D01*
X152522694Y-81868788D01*
X152528890Y-81886666D01*
X152533839Y-81914512D01*
X152537675Y-81955743D01*
X152540533Y-82013772D01*
X152542546Y-82092015D01*
X152543848Y-82193887D01*
X152544574Y-82322802D01*
X152544858Y-82482176D01*
X152544865Y-82614928D01*
X152544480Y-82774000D01*
X152543499Y-82921977D01*
X152541995Y-83054874D01*
X152540042Y-83168704D01*
X152537710Y-83259479D01*
X152535075Y-83323214D01*
X152532208Y-83355920D01*
X152531258Y-83359177D01*
X152487150Y-83396863D01*
X152431644Y-83406099D01*
X152398851Y-83396473D01*
X152354643Y-83374437D01*
X152349907Y-82628071D01*
X152348851Y-82441811D01*
X152348338Y-82288517D01*
X152348472Y-82164873D01*
X152349354Y-82067562D01*
X152351087Y-81993268D01*
X152353774Y-81938673D01*
X152357518Y-81900462D01*
X152362420Y-81875318D01*
X152368584Y-81859924D01*
X152373881Y-81852996D01*
X152422125Y-81827422D01*
X152476033Y-81831406D01*
G36*
X153264757Y-81432672D02*
G01*
X153296775Y-81453653D01*
X153302659Y-81462610D01*
X153307685Y-81478590D01*
X153311920Y-81504256D01*
X153315429Y-81542273D01*
X153318279Y-81595303D01*
X153320535Y-81666012D01*
X153322262Y-81757063D01*
X153323528Y-81871119D01*
X153324397Y-82010846D01*
X153324936Y-82178906D01*
X153325210Y-82377964D01*
X153325285Y-82606917D01*
X153324975Y-82873000D01*
X153324045Y-83105220D01*
X153322504Y-83303224D01*
X153320355Y-83466661D01*
X153317606Y-83595176D01*
X153314261Y-83688417D01*
X153310327Y-83746031D01*
X153306504Y-83766764D01*
X153273699Y-83794407D01*
X153225815Y-83800902D01*
X153177394Y-83786065D01*
X153155740Y-83768678D01*
X153149565Y-83759362D01*
X153144291Y-83744304D01*
X153139849Y-83720802D01*
X153136168Y-83686153D01*
X153133178Y-83637653D01*
X153130810Y-83572599D01*
X153128992Y-83488288D01*
X153127656Y-83382016D01*
X153126730Y-83251080D01*
X153126146Y-83092777D01*
X153125832Y-82904404D01*
X153125719Y-82683257D01*
X153125714Y-82610347D01*
X153125758Y-82380009D01*
X153125942Y-82183232D01*
X153126344Y-82017291D01*
X153127043Y-81879463D01*
X153128117Y-81767024D01*
X153129643Y-81677248D01*
X153131701Y-81607411D01*
X153134368Y-81554789D01*
X153137724Y-81516658D01*
X153141845Y-81490292D01*
X153146810Y-81472969D01*
X153152698Y-81461963D01*
X153158893Y-81455169D01*
X153210738Y-81428393D01*
X153264757Y-81432672D01*
G37*
X153264757Y-81432672D02*
X153296775Y-81453653D01*
X153302659Y-81462610D01*
X153307685Y-81478590D01*
X153311920Y-81504256D01*
X153315429Y-81542273D01*
X153318279Y-81595303D01*
X153320535Y-81666012D01*
X153322262Y-81757063D01*
X153323528Y-81871119D01*
X153324397Y-82010846D01*
X153324936Y-82178906D01*
X153325210Y-82377964D01*
X153325285Y-82606917D01*
X153324975Y-82873000D01*
X153324045Y-83105220D01*
X153322504Y-83303224D01*
X153320355Y-83466661D01*
X153317606Y-83595176D01*
X153314261Y-83688417D01*
X153310327Y-83746031D01*
X153306504Y-83766764D01*
X153273699Y-83794407D01*
X153225815Y-83800902D01*
X153177394Y-83786065D01*
X153155740Y-83768678D01*
X153149565Y-83759362D01*
X153144291Y-83744304D01*
X153139849Y-83720802D01*
X153136168Y-83686153D01*
X153133178Y-83637653D01*
X153130810Y-83572599D01*
X153128992Y-83488288D01*
X153127656Y-83382016D01*
X153126730Y-83251080D01*
X153126146Y-83092777D01*
X153125832Y-82904404D01*
X153125719Y-82683257D01*
X153125714Y-82610347D01*
X153125758Y-82380009D01*
X153125942Y-82183232D01*
X153126344Y-82017291D01*
X153127043Y-81879463D01*
X153128117Y-81767024D01*
X153129643Y-81677248D01*
X153131701Y-81607411D01*
X153134368Y-81554789D01*
X153137724Y-81516658D01*
X153141845Y-81490292D01*
X153146810Y-81472969D01*
X153152698Y-81461963D01*
X153158893Y-81455169D01*
X153210738Y-81428393D01*
X153264757Y-81432672D01*
G36*
X152085472Y-81432672D02*
G01*
X152117490Y-81453653D01*
X152123341Y-81462568D01*
X152128345Y-81478484D01*
X152132565Y-81504050D01*
X152136068Y-81541912D01*
X152138917Y-81594720D01*
X152141177Y-81665120D01*
X152142914Y-81755760D01*
X152144191Y-81869288D01*
X152145073Y-82008352D01*
X152145626Y-82175600D01*
X152145913Y-82373678D01*
X152146000Y-82605236D01*
X152146000Y-82620239D01*
X152145827Y-82866498D01*
X152145285Y-83078477D01*
X152144335Y-83258182D01*
X152142939Y-83407616D01*
X152141061Y-83528784D01*
X152138661Y-83623691D01*
X152135704Y-83694341D01*
X152132151Y-83742738D01*
X152127965Y-83770888D01*
X152124228Y-83780085D01*
X152082513Y-83799427D01*
X152029841Y-83797476D01*
X151983614Y-83775575D01*
X151976455Y-83768678D01*
X151970279Y-83759362D01*
X151965006Y-83744304D01*
X151960563Y-83720802D01*
X151956882Y-83686153D01*
X151953893Y-83637653D01*
X151951524Y-83572599D01*
X151949707Y-83488288D01*
X151948370Y-83382016D01*
X151947445Y-83251080D01*
X151946860Y-83092777D01*
X151946547Y-82904404D01*
X151946434Y-82683257D01*
X151946428Y-82610347D01*
X151946472Y-82380009D01*
X151946656Y-82183232D01*
X151947059Y-82017291D01*
X151947757Y-81879463D01*
X151948831Y-81767024D01*
X151950357Y-81677248D01*
X151952415Y-81607411D01*
X151955083Y-81554789D01*
X151958438Y-81516658D01*
X151962559Y-81490292D01*
X151967525Y-81472969D01*
X151973413Y-81461963D01*
X151979607Y-81455169D01*
X152031453Y-81428393D01*
X152085472Y-81432672D01*
G37*
X152085472Y-81432672D02*
X152117490Y-81453653D01*
X152123341Y-81462568D01*
X152128345Y-81478484D01*
X152132565Y-81504050D01*
X152136068Y-81541912D01*
X152138917Y-81594720D01*
X152141177Y-81665120D01*
X152142914Y-81755760D01*
X152144191Y-81869288D01*
X152145073Y-82008352D01*
X152145626Y-82175600D01*
X152145913Y-82373678D01*
X152146000Y-82605236D01*
X152146000Y-82620239D01*
X152145827Y-82866498D01*
X152145285Y-83078477D01*
X152144335Y-83258182D01*
X152142939Y-83407616D01*
X152141061Y-83528784D01*
X152138661Y-83623691D01*
X152135704Y-83694341D01*
X152132151Y-83742738D01*
X152127965Y-83770888D01*
X152124228Y-83780085D01*
X152082513Y-83799427D01*
X152029841Y-83797476D01*
X151983614Y-83775575D01*
X151976455Y-83768678D01*
X151970279Y-83759362D01*
X151965006Y-83744304D01*
X151960563Y-83720802D01*
X151956882Y-83686153D01*
X151953893Y-83637653D01*
X151951524Y-83572599D01*
X151949707Y-83488288D01*
X151948370Y-83382016D01*
X151947445Y-83251080D01*
X151946860Y-83092777D01*
X151946547Y-82904404D01*
X151946434Y-82683257D01*
X151946428Y-82610347D01*
X151946472Y-82380009D01*
X151946656Y-82183232D01*
X151947059Y-82017291D01*
X151947757Y-81879463D01*
X151948831Y-81767024D01*
X151950357Y-81677248D01*
X151952415Y-81607411D01*
X151955083Y-81554789D01*
X151958438Y-81516658D01*
X151962559Y-81490292D01*
X151967525Y-81472969D01*
X151973413Y-81461963D01*
X151979607Y-81455169D01*
X152031453Y-81428393D01*
X152085472Y-81432672D01*
G36*
X152872873Y-81036262D02*
G01*
X152899996Y-81051748D01*
X152906271Y-81057208D01*
X152911763Y-81065369D01*
X152916533Y-81078562D01*
X152920640Y-81099121D01*
X152924146Y-81129380D01*
X152927109Y-81171671D01*
X152929591Y-81228327D01*
X152931651Y-81301682D01*
X152933350Y-81394068D01*
X152934748Y-81507819D01*
X152935904Y-81645268D01*
X152936880Y-81808747D01*
X152937735Y-82000591D01*
X152938529Y-82223132D01*
X152939323Y-82478703D01*
X152939650Y-82589355D01*
X152940369Y-82871008D01*
X152940751Y-83118378D01*
X152940772Y-83333469D01*
X152940410Y-83518283D01*
X152939639Y-83674822D01*
X152938436Y-83805089D01*
X152936777Y-83911086D01*
X152934639Y-83994815D01*
X152931997Y-84058279D01*
X152928827Y-84103480D01*
X152925107Y-84132421D01*
X152921094Y-84146571D01*
X152884278Y-84185859D01*
X152834666Y-84200007D01*
X152785154Y-84188020D01*
X152754595Y-84159424D01*
X152749471Y-84148776D01*
X152745014Y-84131987D01*
X152741188Y-84106747D01*
X152737960Y-84070746D01*
X152735293Y-84021672D01*
X152733152Y-83957218D01*
X152731502Y-83875071D01*
X152730309Y-83772922D01*
X152729536Y-83648461D01*
X152729149Y-83499378D01*
X152729113Y-83323363D01*
X152729392Y-83118104D01*
X152729951Y-82881293D01*
X152730755Y-82610618D01*
X152730800Y-82596606D01*
X152731681Y-82326648D01*
X152732529Y-82090647D01*
X152733405Y-81886278D01*
X152734370Y-81711212D01*
X152735483Y-81563123D01*
X152736805Y-81439682D01*
X152738396Y-81338563D01*
X152740317Y-81257439D01*
X152742628Y-81193981D01*
X152745390Y-81145864D01*
X152748662Y-81110758D01*
X152752505Y-81086338D01*
X152756979Y-81070275D01*
X152762146Y-81060243D01*
X152768064Y-81053914D01*
X152770860Y-81051748D01*
X152810646Y-81031212D01*
X152835428Y-81026000D01*
X152872873Y-81036262D01*
G37*
X152872873Y-81036262D02*
X152899996Y-81051748D01*
X152906271Y-81057208D01*
X152911763Y-81065369D01*
X152916533Y-81078562D01*
X152920640Y-81099121D01*
X152924146Y-81129380D01*
X152927109Y-81171671D01*
X152929591Y-81228327D01*
X152931651Y-81301682D01*
X152933350Y-81394068D01*
X152934748Y-81507819D01*
X152935904Y-81645268D01*
X152936880Y-81808747D01*
X152937735Y-82000591D01*
X152938529Y-82223132D01*
X152939323Y-82478703D01*
X152939650Y-82589355D01*
X152940369Y-82871008D01*
X152940751Y-83118378D01*
X152940772Y-83333469D01*
X152940410Y-83518283D01*
X152939639Y-83674822D01*
X152938436Y-83805089D01*
X152936777Y-83911086D01*
X152934639Y-83994815D01*
X152931997Y-84058279D01*
X152928827Y-84103480D01*
X152925107Y-84132421D01*
X152921094Y-84146571D01*
X152884278Y-84185859D01*
X152834666Y-84200007D01*
X152785154Y-84188020D01*
X152754595Y-84159424D01*
X152749471Y-84148776D01*
X152745014Y-84131987D01*
X152741188Y-84106747D01*
X152737960Y-84070746D01*
X152735293Y-84021672D01*
X152733152Y-83957218D01*
X152731502Y-83875071D01*
X152730309Y-83772922D01*
X152729536Y-83648461D01*
X152729149Y-83499378D01*
X152729113Y-83323363D01*
X152729392Y-83118104D01*
X152729951Y-82881293D01*
X152730755Y-82610618D01*
X152730800Y-82596606D01*
X152731681Y-82326648D01*
X152732529Y-82090647D01*
X152733405Y-81886278D01*
X152734370Y-81711212D01*
X152735483Y-81563123D01*
X152736805Y-81439682D01*
X152738396Y-81338563D01*
X152740317Y-81257439D01*
X152742628Y-81193981D01*
X152745390Y-81145864D01*
X152748662Y-81110758D01*
X152752505Y-81086338D01*
X152756979Y-81070275D01*
X152762146Y-81060243D01*
X152768064Y-81053914D01*
X152770860Y-81051748D01*
X152810646Y-81031212D01*
X152835428Y-81026000D01*
X152872873Y-81036262D01*
D10*
X157695000Y-102765000D02*
X162345000Y-102765000D01*
X156620000Y-92765000D02*
X162345000Y-92765000D01*
X157695000Y-102765000D02*
X157695000Y-102657500D01*
X162345000Y-102765000D02*
X162345000Y-102657500D01*
X162345000Y-92815000D02*
X162345000Y-92922500D01*
D13*
X177800000Y-124520000D02*
X176470000Y-124520000D01*
X176470000Y-124520000D02*
X176470000Y-123190000D01*
X176470000Y-121920000D02*
X176470000Y-76140000D01*
X179130000Y-76140000D02*
X176470000Y-76140000D01*
X179130000Y-121920000D02*
X179130000Y-76140000D01*
X179130000Y-121920000D02*
X176470000Y-121920000D01*
X142240000Y-76140000D02*
X143570000Y-76140000D01*
X143570000Y-76140000D02*
X143570000Y-77470000D01*
X143570000Y-78740000D02*
X143570000Y-124520000D01*
X140910000Y-124520000D02*
X143570000Y-124520000D01*
X140910000Y-78740000D02*
X140910000Y-124520000D01*
X140910000Y-78740000D02*
X143570000Y-78740000D01*
X150420000Y-93721422D02*
X150420000Y-94238578D01*
X151840000Y-93721422D02*
X151840000Y-94238578D01*
X170890000Y-98048578D02*
X170890000Y-97531422D01*
X169470000Y-98048578D02*
X169470000Y-97531422D01*
X151840000Y-98048578D02*
X151840000Y-97531422D01*
X150420000Y-98048578D02*
X150420000Y-97531422D01*
D10*
X159258095Y-91342380D02*
X159258095Y-92151904D01*
X159305714Y-92247142D01*
X159353333Y-92294761D01*
X159448571Y-92342380D01*
X159639047Y-92342380D01*
X159734285Y-92294761D01*
X159781904Y-92247142D01*
X159829523Y-92151904D01*
X159829523Y-91342380D01*
X160829523Y-92342380D02*
X160258095Y-92342380D01*
X160543809Y-92342380D02*
X160543809Y-91342380D01*
X160448571Y-91485238D01*
X160353333Y-91580476D01*
X160258095Y-91628095D01*
X149656026Y-94136821D02*
X149703645Y-94184440D01*
X149751264Y-94327297D01*
X149751264Y-94422535D01*
X149703645Y-94565393D01*
X149608407Y-94660631D01*
X149513169Y-94708250D01*
X149322693Y-94755869D01*
X149179836Y-94755869D01*
X148989360Y-94708250D01*
X148894122Y-94660631D01*
X148798884Y-94565393D01*
X148751264Y-94422535D01*
X148751264Y-94327297D01*
X148798884Y-94184440D01*
X148846503Y-94136821D01*
X148751264Y-93803488D02*
X148751264Y-93184440D01*
X149132217Y-93517774D01*
X149132217Y-93374916D01*
X149179836Y-93279678D01*
X149227455Y-93232059D01*
X149322693Y-93184440D01*
X149560788Y-93184440D01*
X149656026Y-93232059D01*
X149703645Y-93279678D01*
X149751264Y-93374916D01*
X149751264Y-93660631D01*
X149703645Y-93755869D01*
X149656026Y-93803488D01*
X168887142Y-97956666D02*
X168934761Y-98004285D01*
X168982380Y-98147142D01*
X168982380Y-98242380D01*
X168934761Y-98385238D01*
X168839523Y-98480476D01*
X168744285Y-98528095D01*
X168553809Y-98575714D01*
X168410952Y-98575714D01*
X168220476Y-98528095D01*
X168125238Y-98480476D01*
X168030000Y-98385238D01*
X167982380Y-98242380D01*
X167982380Y-98147142D01*
X168030000Y-98004285D01*
X168077619Y-97956666D01*
X168077619Y-97575714D02*
X168030000Y-97528095D01*
X167982380Y-97432857D01*
X167982380Y-97194761D01*
X168030000Y-97099523D01*
X168077619Y-97051904D01*
X168172857Y-97004285D01*
X168268095Y-97004285D01*
X168410952Y-97051904D01*
X168982380Y-97623333D01*
X168982380Y-97004285D01*
X149616649Y-97956348D02*
X149664268Y-98003967D01*
X149711887Y-98146824D01*
X149711887Y-98242062D01*
X149664268Y-98384920D01*
X149569030Y-98480158D01*
X149473792Y-98527777D01*
X149283316Y-98575396D01*
X149140459Y-98575396D01*
X148949983Y-98527777D01*
X148854745Y-98480158D01*
X148759507Y-98384920D01*
X148711887Y-98242062D01*
X148711887Y-98146824D01*
X148759507Y-98003967D01*
X148807126Y-97956348D01*
X149711887Y-97003967D02*
X149711887Y-97575396D01*
X149711887Y-97289682D02*
X148711887Y-97289682D01*
X148854745Y-97384920D01*
X148949983Y-97480158D01*
X148997602Y-97575396D01*
M02*
